<?xml version="1.0" standalone="no"?>
<!DOCTYPE svg PUBLIC "-//W3C//DTD SVG 20010904//EN"
 "http://www.w3.org/TR/2001/REC-SVG-20010904/DTD/svg10.dtd">
<svg version="1.0" xmlns="http://www.w3.org/2000/svg"
 width="253.000000pt" height="331.000000pt" viewBox="0 0 253.000000 331.000000"
 preserveAspectRatio="xMidYMid meet">
<g transform="translate(0.000000,331.000000) scale(0.100000,-0.100000)"
fill="#000000" stroke="none">
<path d="M1246 3292 c-3 -5 1 -9 9 -9 8 0 12 4 9 9 -3 4 -7 8 -9 8 -2 0 -6 -4
-9 -8z"/>
<path d="M1226 3188 c-27 -83 -119 -263 -187 -368 -79 -120 -173 -241 -475
-610 -288 -353 -342 -426 -400 -547 -159 -334 -164 -702 -14 -1009 244 -500
811 -739 1395 -588 118 31 281 105 374 171 211 149 383 395 447 638 24 87 27
121 28 260 1 146 -2 169 -27 260 -15 55 -50 146 -77 202 -28 56 -50 106 -50
111 0 12 59 22 127 22 l52 0 -166 250 c-91 138 -168 248 -170 246 -4 -4 49
-96 79 -135 18 -24 24 -46 10 -37 -4 2 -8 -4 -8 -14 0 -10 4 -17 7 -14 4 2 10
0 14 -6 3 -5 2 -10 -3 -10 -5 0 -9 -7 -9 -16 0 -14 2 -14 11 -3 18 24 35 16
66 -31 33 -50 41 -79 10 -40 -18 24 -19 24 -17 3 0 -12 4 -20 8 -17 4 2 10 0
14 -6 4 -6 11 -8 16 -4 6 3 13 -3 16 -15 3 -12 10 -21 15 -21 5 0 8 -6 7 -12
-3 -29 2 -40 16 -34 15 5 22 -9 7 -17 -4 -2 -2 -2 5 -1 6 2 14 -3 16 -10 4 -9
-2 -13 -16 -12 -16 1 -21 -4 -19 -18 3 -17 -1 -18 -43 -13 -29 4 -44 3 -40 -3
3 -6 0 -10 -9 -10 -23 0 -25 -23 -4 -52 11 -16 17 -32 14 -37 -3 -5 1 -12 10
-15 13 -5 14 -9 4 -21 -10 -12 -10 -15 0 -15 22 0 40 -33 27 -49 -9 -11 -9
-13 0 -8 17 10 28 -13 12 -25 -11 -7 -9 -8 5 -4 15 5 17 2 13 -14 -3 -11 -1
-18 3 -15 5 3 7 -15 5 -40 -2 -25 0 -43 4 -40 5 2 7 17 5 32 -2 18 2 11 12
-17 9 -25 16 -70 17 -101 1 -32 6 -52 10 -45 9 13 3 -106 -7 -144 -6 -22 -5
-22 4 -5 8 15 9 -2 6 -65 -5 -100 -32 -224 -51 -240 -7 -6 -11 -20 -8 -30 4
-13 0 -20 -10 -20 -8 0 -21 -8 -28 -18 -11 -14 -11 -15 1 -4 20 18 29 15 23
-8 -3 -11 -9 -17 -14 -14 -5 3 -6 -3 -3 -13 5 -16 4 -16 -10 1 -9 11 -16 15
-16 10 0 -6 5 -15 12 -22 10 -9 8 -16 -7 -30 -16 -14 -17 -14 -6 0 9 13 9 18
-1 24 -7 4 -10 4 -6 -1 4 -4 3 -14 -3 -21 -7 -8 -7 -14 1 -19 7 -4 3 -17 -11
-36 -16 -22 -26 -28 -42 -24 -19 5 -20 5 -4 -5 9 -6 17 -15 17 -20 0 -5 -8 -7
-17 -4 -13 4 -14 3 -6 -3 10 -7 10 -13 -2 -29 -15 -19 -15 -19 -9 1 l6 20 -13
-20 c-7 -11 -12 -22 -12 -25 0 -3 -8 -18 -19 -33 -20 -27 -21 -28 -42 -10 -21
18 -21 18 -4 -2 14 -17 14 -23 4 -37 -7 -10 -16 -14 -20 -10 -4 4 -6 2 -4 -3
1 -6 -1 -11 -7 -12 -5 -2 -10 1 -10 7 0 18 -22 33 -30 19 -5 -7 -4 -10 2 -6 6
4 13 -2 16 -12 5 -22 -15 -35 -30 -20 -6 6 -10 4 -10 -5 0 -10 8 -13 26 -10
25 4 25 3 7 -11 -10 -8 -23 -12 -28 -9 -5 3 -7 0 -6 -8 3 -13 -3 -14 -37 -3
-14 4 -12 2 5 -9 14 -8 23 -16 20 -16 -36 -8 -50 -8 -45 -1 3 5 1 12 -4 15
-11 7 -9 -13 2 -31 8 -12 2 -17 -16 -14 -4 0 -6 -5 -5 -11 2 -7 -5 -12 -14
-12 -10 1 -15 -2 -13 -7 3 -4 -5 -13 -17 -20 -21 -11 -22 -11 -9 4 9 11 10 17
2 17 -10 0 -13 -7 -10 -26 1 -7 -72 -53 -84 -54 -5 0 -5 5 -1 12 4 7 3 8 -5 4
-6 -4 -9 -11 -6 -16 3 -4 -4 -10 -15 -13 -17 -4 -18 -2 -9 16 7 13 -2 7 -21
-13 -17 -19 -28 -29 -24 -21 4 7 -6 4 -23 -8 -16 -12 -69 -33 -118 -46 -105
-29 -104 -29 -80 -12 13 10 15 16 6 21 -7 5 -15 5 -18 2 -4 -3 0 -6 8 -6 8 0
5 -6 -9 -15 -30 -22 -187 -38 -307 -31 -55 3 -117 5 -137 5 -21 0 -38 5 -38
11 0 7 -8 9 -19 5 -24 -7 -73 4 -65 16 3 5 0 9 -6 9 -6 0 -9 4 -6 8 3 5 -1 9
-9 9 -11 0 -12 -4 -4 -14 9 -10 8 -13 -4 -13 -8 0 -17 5 -19 10 -2 6 -18 13
-36 15 -49 6 -101 27 -107 43 -7 18 4 34 17 26 7 -5 8 -2 3 5 -6 10 -12 8 -28
-7 -24 -25 -54 -15 -81 26 -10 15 -15 19 -12 10 3 -10 1 -18 -5 -18 -6 0 -13
9 -16 21 -4 12 -9 16 -12 10 -5 -8 -13 -6 -27 4 -14 11 -15 14 -3 9 10 -3 20
-1 24 5 3 6 0 9 -8 5 -8 -3 -18 -1 -21 5 -4 6 -14 7 -23 4 -12 -5 -14 -3 -8 7
5 8 4 11 -2 7 -12 -8 -27 20 -24 43 1 11 -1 10 -9 -3 -11 -16 -12 -16 -35 0
-14 10 -25 22 -25 27 0 5 9 1 20 -9 11 -10 23 -15 27 -12 3 4 1 7 -5 7 -7 0
-11 5 -10 12 2 7 -7 13 -19 14 -42 3 -44 4 -37 16 4 6 3 8 -3 5 -6 -4 -20 4
-32 17 -19 20 -20 24 -5 23 9 -1 19 5 21 13 4 12 3 12 -5 1 -7 -10 -14 -11
-31 -2 -11 6 -20 17 -18 23 1 7 -4 12 -12 13 -8 0 -16 6 -19 13 -2 8 2 10 15
5 10 -3 15 -3 11 1 -3 4 -14 9 -25 11 -10 1 -17 8 -15 15 1 6 -2 9 -7 6 -11
-7 -24 21 -24 51 0 12 -4 20 -9 17 -4 -3 -5 -10 -2 -16 4 -7 2 -8 -5 -4 -6 4
-9 18 -7 31 4 19 1 22 -12 18 -15 -6 -15 -4 -4 9 10 13 10 18 1 24 -8 5 -9 3
-4 -6 5 -8 3 -11 -6 -8 -8 3 -15 12 -17 21 -3 16 13 18 38 2 13 -7 13 -6 2 7
-7 9 -22 15 -33 13 -17 -3 -24 6 -20 28 0 4 -3 7 -8 7 -5 0 -12 7 -15 16 -3 8
-2 13 3 10 5 -3 11 1 14 9 4 9 1 12 -9 8 -19 -7 -38 40 -63 154 -19 90 -37
304 -22 268 5 -12 6 8 3 48 -3 45 1 88 11 130 9 34 18 71 20 82 1 11 6 -25 11
-80 4 -55 11 -118 16 -140 6 -27 7 -11 2 50 -13 163 -8 257 18 319 12 31 26
57 31 57 5 1 13 2 18 3 5 0 13 4 17 8 4 4 14 2 23 -5 14 -11 14 -10 2 5 -7 10
-17 15 -22 12 -5 -3 -9 0 -9 7 0 7 -7 4 -15 -7 -18 -24 -19 -7 -1 25 13 23 14
23 25 5 10 -15 11 -15 7 -2 -3 10 -1 20 5 24 6 3 8 13 5 21 -7 18 32 86 44 78
5 -3 11 -1 15 5 3 5 11 10 17 10 7 0 7 -4 -1 -13 -8 -10 -7 -14 3 -14 9 0 13
8 10 22 -2 13 3 28 13 36 15 12 16 12 10 -4 -4 -11 -3 -16 4 -12 6 4 8 13 5
20 -2 7 -2 16 2 20 4 3 7 12 7 18 0 7 5 13 10 15 6 1 10 -2 10 -8 0 -5 5 -10
10 -9 16 1 16 5 1 18 -19 16 -10 41 12 34 14 -4 15 -3 2 5 -8 6 -18 8 -24 5
-5 -3 -6 -2 -3 4 4 6 18 9 32 8 14 -2 23 1 19 7 -3 5 2 18 11 28 10 11 18 29
19 41 1 13 8 23 19 25 23 3 47 23 47 38 0 6 -7 2 -15 -8 -8 -11 -17 -17 -20
-15 -7 8 25 50 34 45 4 -3 8 1 8 9 0 15 53 83 66 84 4 1 3 -8 -3 -19 -15 -29
-5 -25 15 6 9 15 12 23 6 20 -17 -11 -13 3 9 31 12 15 20 20 20 12 0 -11 2
-11 9 -1 4 7 14 12 22 10 9 -2 13 4 11 16 -2 13 1 16 10 10 10 -6 9 -3 -1 10
-12 15 -12 19 3 34 17 16 18 16 12 -5 -4 -12 -2 -24 5 -29 7 -4 9 -3 6 4 -12
18 4 44 24 39 11 -3 17 -1 13 4 -3 5 -12 9 -20 9 -8 0 -14 4 -14 10 0 5 7 7
15 4 8 -4 15 -1 15 6 0 6 -6 8 -12 4 -8 -4 -10 -3 -5 2 5 5 18 9 30 9 12 1 21
6 19 13 -1 7 5 15 13 18 8 3 13 10 10 14 -2 4 4 15 15 25 22 20 28 7 8 -14
-10 -11 -10 -13 0 -7 6 4 12 3 12 -2 0 -5 7 -9 16 -9 14 0 14 2 3 11 -8 6 -14
27 -13 46 2 52 3 56 15 40 9 -13 10 -13 6 0 -4 18 48 93 71 101 9 3 17 15 17
25 0 10 6 18 13 16 6 -1 11 1 11 5 -3 17 2 29 22 53 11 14 18 19 14 13 -3 -7
-2 -13 3 -13 6 0 13 7 16 16 4 9 2 13 -5 8 -7 -4 -10 -2 -8 5 3 7 7 11 9 10
10 -5 50 22 50 33 0 6 -9 3 -20 -7 -11 -10 -20 -13 -20 -7 0 7 5 12 10 12 6 0
10 7 10 15 0 8 3 14 8 14 4 -1 10 0 15 1 4 1 13 3 20 4 6 0 12 10 13 21 2 30
23 65 37 62 7 -1 12 5 12 13 0 15 13 30 28 30 5 0 5 -5 1 -12 -4 -7 -3 -8 4
-4 7 4 12 19 11 34 0 16 -3 21 -6 12 -6 -15 -23 -30 -34 -30 -3 0 -6 12 -5 28
1 20 6 27 20 25 12 -1 15 2 8 9 -7 7 -7 20 0 39 14 40 24 36 22 -8 l-3 -38 8
35 c4 19 4 40 -1 46 -4 6 1 33 12 60 l19 49 -4 -55 c-27 -364 -115 -605 -314
-851 -70 -88 -100 -115 -268 -246 -290 -226 -414 -407 -492 -718 -30 -121 -35
-148 -23 -141 6 3 13 29 17 56 4 28 11 50 17 50 5 0 6 4 3 10 -7 11 16 93 53
193 22 61 26 66 39 50 13 -17 13 -16 4 4 -9 17 -6 31 14 70 36 69 49 83 73 78
12 -2 24 1 28 6 3 5 0 8 -8 7 -7 -2 -14 6 -16 17 -4 31 131 177 149 162 10
-10 10 -8 0 6 -11 14 -11 17 3 17 9 0 16 4 16 9 0 15 141 122 151 115 5 -3 7
-10 4 -15 -3 -5 1 -6 10 -3 14 6 14 7 -1 18 -14 10 -10 17 32 49 26 21 54 35
62 32 7 -2 10 0 7 5 -7 11 32 53 44 46 5 -3 16 3 26 14 10 11 23 17 29 13 6
-3 5 0 -1 8 -26 27 -12 32 15 6 20 -19 29 -23 29 -13 0 8 -3 13 -7 11 -4 -3
-14 3 -23 13 -15 16 -13 20 22 57 21 22 43 50 50 63 7 12 16 20 21 17 6 -3 7
1 4 9 -3 9 -1 16 5 16 6 0 11 5 11 10 0 6 7 22 17 36 12 19 18 22 25 12 6 -9
7 -6 3 9 -7 27 12 40 29 18 11 -15 12 -15 12 4 0 11 -4 19 -9 18 -5 -1 -12 4
-15 12 -2 8 0 11 6 7 5 -3 9 0 9 7 -2 23 35 97 46 90 6 -3 7 -1 3 5 -4 7 5 44
19 83 38 106 67 250 80 394 3 31 29 29 49 -5 17 -30 17 -32 -1 -46 -17 -14
-16 -14 6 -3 21 10 23 9 18 -5 -4 -10 -3 -15 1 -12 5 3 18 -15 30 -40 24 -48
26 -58 14 -50 -4 2 -8 -6 -8 -19 0 -19 3 -22 16 -15 13 7 23 -3 48 -49 33 -60
38 -76 24 -67 -5 3 -9 -1 -9 -9 0 -11 4 -12 13 -4 10 8 18 1 34 -31 19 -37 19
-42 5 -56 -19 -19 -19 -21 0 -21 8 0 12 4 9 8 -2 4 0 10 5 13 12 8 19 -14 16
-47 -2 -15 1 -25 5 -22 5 3 7 13 3 23 -3 9 5 2 16 -17 12 -18 20 -36 17 -39
-3 -2 -8 3 -12 12 -3 9 -10 13 -15 11 -4 -3 -1 -14 9 -23 9 -10 20 -14 23 -10
3 4 13 -8 22 -27 9 -19 12 -35 7 -35 -6 0 -10 4 -10 9 0 5 -7 11 -14 14 -11 4
-13 1 -9 -10 5 -12 3 -14 -7 -8 -8 5 -11 4 -6 -3 4 -6 13 -9 20 -6 8 3 17 0
21 -6 6 -9 10 -9 16 1 5 9 10 5 14 -13 7 -28 -1 -69 -13 -66 -4 1 -18 -4 -32
-10 -14 -6 -18 -11 -9 -11 8 -1 21 5 28 12 17 15 13 6 -23 -65 -17 -32 -32
-56 -34 -54 -2 2 6 22 17 45 26 49 27 64 4 31 -10 -14 -17 -26 -15 -28 1 -1
-5 -16 -14 -33 -8 -17 -11 -28 -5 -25 16 10 14 1 -7 -34 -10 -16 -22 -27 -26
-22 -4 4 -6 3 -5 -3 5 -19 -12 -55 -23 -49 -6 4 -8 2 -5 -4 4 -5 4 -18 1 -27
-6 -13 -9 -14 -16 -3 -8 10 -9 9 -5 -3 3 -9 -8 -38 -25 -65 -16 -27 -28 -39
-25 -27 3 13 -2 28 -11 35 -13 11 -14 11 -7 -1 14 -23 13 -66 -1 -85 -12 -18
-16 -18 -86 0 -99 26 -307 25 -393 0 -33 -10 -70 -19 -82 -20 -11 0 -19 -4
-16 -8 4 -8 -18 -12 -52 -10 -14 2 -16 0 -7 -6 16 -11 -34 -36 -50 -26 -6 4
-8 2 -5 -3 4 -6 -8 -20 -26 -31 -18 -10 -62 -47 -98 -80 -49 -46 -69 -58 -77
-50 -9 9 -11 6 -7 -10 2 -13 -9 -38 -31 -66 -56 -74 -113 -203 -134 -307 -39
-188 -16 -370 67 -539 26 -52 47 -102 47 -111 -1 -10 5 -16 14 -15 9 2 28 -12
44 -30 16 -18 51 -49 78 -70 41 -31 47 -40 34 -47 -8 -5 -27 -6 -41 -2 -48 12
-233 104 -233 116 0 7 -3 9 -7 5 -7 -6 39 -56 52 -56 4 0 40 -16 80 -35 86
-41 161 -65 225 -70 25 -2 74 -11 110 -21 131 -33 342 1 449 71 24 16 45 23
57 19 13 -4 15 -3 6 3 -9 7 0 18 32 41 25 18 68 57 97 87 44 46 55 53 68 43 9
-7 13 -8 9 -4 -4 5 -2 16 5 24 9 13 9 14 0 8 -19 -11 -16 1 9 34 11 16 24 27
28 25 4 -3 7 3 6 13 0 9 5 16 12 14 8 -1 11 2 8 7 -3 5 12 47 34 93 22 45 52
130 67 188 22 89 26 127 27 245 0 142 -18 267 -48 340 -17 40 -22 41 -145 25
-41 -6 -76 -9 -77 -7 -2 1 6 17 18 35 17 27 23 30 35 21 11 -10 13 -10 11 1
-2 8 4 15 12 15 8 0 14 7 12 14 -2 8 7 24 19 37 12 13 19 27 16 31 -4 3 -7 1
-7 -5 0 -7 -5 -12 -10 -12 -7 0 -7 6 0 20 6 11 16 17 25 14 8 -4 18 1 21 10 3
9 9 14 13 11 4 -2 8 3 8 12 0 13 -4 12 -18 -5 -25 -32 -33 -27 -13 7 10 17 21
28 26 25 5 -3 7 0 6 7 -2 7 2 13 9 14 6 0 15 3 18 7 4 4 16 3 26 -2 12 -7 20
-7 24 0 4 6 3 10 -2 9 -22 -4 -29 3 -27 29 2 38 2 38 20 16 14 -18 15 -18 4 4
-11 23 -5 46 10 37 5 -3 12 -1 15 5 5 8 12 7 23 -2 15 -10 15 -10 4 2 -10 12
-9 18 10 33 13 10 17 16 8 15 -8 -2 -22 -12 -32 -23 -9 -11 -17 -15 -17 -10 0
16 28 49 44 51 16 2 51 34 38 34 -5 0 -14 -5 -21 -12 -9 -9 -12 -9 -12 -1 0 7
10 19 23 28 12 8 21 18 19 21 -2 2 6 17 17 32 12 16 20 21 21 13 0 -8 -8 -23
-17 -35 -18 -20 -18 -20 8 0 20 14 25 23 18 36 -12 22 -11 31 0 23 5 -3 12 -1
16 4 3 5 14 8 25 6 11 -2 20 0 20 5 0 5 8 6 17 3 15 -6 16 -5 3 9 -8 9 -16 12
-18 7 -2 -5 -8 -9 -13 -9 -6 0 -7 6 -3 13 5 8 2 8 -9 -2 -21 -17 -22 -7 -1 24
9 14 20 22 25 19 5 -3 6 3 2 13 -3 10 -3 15 2 11 4 -4 14 -3 22 3 17 14 17 -2
1 -21 -11 -12 -10 -12 4 -2 18 14 34 0 22 -20 -5 -7 -3 -8 6 -3 10 6 12 4 7
-9 -4 -9 -3 -14 2 -11 5 3 12 -4 16 -15 3 -11 10 -20 15 -20 4 0 8 -10 8 -22
-1 -13 9 -59 21 -103 85 -314 58 -756 -66 -1090 -103 -280 -318 -523 -579
-657 -151 -78 -284 -108 -470 -108 -102 0 -143 4 -185 19 -276 95 -497 319
-573 582 -51 178 -80 349 -56 334 6 -4 7 1 3 11 -5 15 -7 15 -16 -1 -10 -18
-5 -104 10 -160 4 -16 7 -47 7 -67 0 -21 3 -33 6 -27 4 5 12 -16 19 -48 7 -32
24 -85 37 -118 20 -50 21 -61 10 -75 -8 -8 -17 -26 -20 -40 -6 -22 -5 -22 11
5 20 33 50 48 39 18 -4 -9 -4 -14 0 -10 4 3 19 -13 34 -36 15 -23 43 -64 63
-91 21 -26 34 -53 31 -58 -4 -7 -2 -8 4 -4 6 3 34 -16 62 -43 29 -28 60 -53
71 -56 10 -4 19 -10 19 -15 0 -5 12 -15 28 -23 15 -8 53 -28 84 -44 32 -16 55
-34 50 -38 -4 -5 -1 -5 5 -1 12 7 61 -7 133 -37 103 -44 477 -47 620 -7 41 12
85 23 97 24 11 1 32 9 45 17 20 14 53 30 68 34 35 9 215 127 260 170 15 14 29
22 33 18 4 -3 7 0 7 8 0 8 15 29 33 47 25 24 36 29 44 21 9 -9 11 -7 6 9 -5
21 38 87 50 76 3 -3 4 3 3 13 0 11 5 18 16 17 9 -1 14 4 12 11 -7 17 36 86 49
78 5 -3 7 -1 4 5 -10 14 3 43 15 36 6 -4 8 -1 6 7 -3 8 3 31 14 52 31 62 77
214 93 305 8 46 14 132 13 191 -1 58 -3 86 -5 61 -14 -194 -26 -288 -49 -370
-55 -201 -153 -369 -304 -521 -248 -250 -553 -354 -940 -320 -69 6 -138 16
-155 21 -22 7 -10 8 45 4 193 -15 486 64 612 164 9 8 22 11 29 6 8 -5 10 -3 4
6 -5 8 -3 11 6 8 8 -3 13 -12 11 -19 -3 -11 -1 -12 10 -1 11 11 10 14 -1 21
-11 7 -10 11 6 20 11 5 24 7 28 3 3 -4 5 0 3 8 -2 9 3 14 12 12 8 -2 12 0 8 3
-4 4 21 34 55 65 43 40 65 55 70 47 6 -8 7 -5 3 7 -5 14 -2 17 9 12 9 -3 13
-2 10 4 -7 12 33 72 44 66 4 -3 8 0 8 7 0 7 21 43 47 81 120 177 196 403 236
702 15 112 8 447 -12 552 -13 65 -13 72 1 67 8 -3 12 -3 9 1 -4 4 -3 15 3 25
8 15 3 29 -20 63 -17 24 -55 82 -85 130 -52 84 -55 87 -67 64 -17 -32 -252
-360 -397 -553 -65 -88 -118 -161 -116 -163 1 -2 35 1 76 7 40 6 93 11 117 13
43 3 44 2 58 -37 25 -72 43 -206 43 -319 0 -182 -48 -363 -137 -516 -51 -88
-209 -246 -298 -298 -362 -213 -764 -57 -899 348 -63 191 -52 410 30 588 148
324 497 516 833 458 51 -9 107 -22 125 -30 l33 -14 141 248 c78 137 142 253
142 258 0 5 -48 99 -106 208 -59 110 -151 281 -204 382 l-97 183 -17 -53z
m-70 -228 c1 -16 -2 -27 -7 -24 -12 7 -50 -58 -43 -76 3 -8 2 -11 -2 -7 -4 4
-14 1 -23 -6 -10 -8 -8 0 6 23 12 19 31 54 43 78 12 23 23 42 24 42 0 0 2 -13
2 -30z m234 -30 c0 -5 -5 -10 -11 -10 -5 0 -7 5 -4 10 3 6 8 10 11 10 2 0 4
-4 4 -10z m-550 -414 c0 -2 -15 -23 -34 -47 -19 -23 -33 -46 -31 -49 2 -4 -2
-7 -10 -7 -17 0 -12 8 34 65 33 40 41 47 41 38z m1071 -59 c-10 -9 -11 -8 -5
6 3 10 9 15 12 12 3 -3 0 -11 -7 -18z m126 -177 c12 -21 18 -42 14 -53 -5 -13
-12 -2 -28 44 -23 65 -19 67 14 9z m-1361 22 c0 -10 -8 -18 -18 -18 -16 0 -16
2 -1 18 9 10 17 18 17 18 1 0 2 -8 2 -18z m214 -75 c0 -2 -10 -12 -22 -23
l-23 -19 19 23 c18 21 26 27 26 19z m738 -167 c-7 -10 -14 -17 -17 -15 -4 4
18 35 25 35 2 0 -1 -9 -8 -20z m582 -42 c0 -6 -7 -5 -15 2 -8 7 -15 17 -15 22
0 6 7 5 15 -2 8 -7 15 -17 15 -22z m-1782 -13 c-13 -19 -27 -35 -31 -35 -4 0
4 16 19 35 34 45 41 45 12 0z m-72 -84 c-10 -11 -16 -24 -13 -28 3 -5 -12 -26
-34 -48 -21 -21 -39 -35 -39 -31 0 12 94 136 99 131 2 -3 -4 -14 -13 -24z
m1155 -25 c-7 -8 -9 -21 -5 -28 4 -7 4 -10 -1 -6 -4 4 -14 3 -22 -3 -7 -6 -13
-8 -13 -5 0 11 43 66 48 61 3 -2 -1 -11 -7 -19z m879 -150 c0 -2 -11 -3 -24
-3 -16 0 -23 4 -19 13 4 10 10 11 24 3 10 -5 19 -11 19 -13z m-2178 -38 c-7
-7 -12 -8 -12 -2 0 14 12 26 19 19 2 -3 -1 -11 -7 -17z m446 -1149 c25 -14 29
-19 12 -14 -22 5 -40 9 -75 14 -5 1 -3 6 5 11 19 12 14 13 58 -11z"/>
<path d="M1268 3113 c10 -4 10 -8 1 -19 -6 -7 -9 -19 -6 -26 3 -8 6 -6 6 6 1
12 6 16 16 12 8 -3 15 -2 15 2 0 12 -23 32 -34 31 -6 0 -5 -3 2 -6z"/>
<path d="M1262 3030 c0 -14 2 -19 5 -12 2 6 2 18 0 25 -3 6 -5 1 -5 -13z"/>
<path d="M1423 3008 c-11 -19 -13 -39 -1 -32 5 3 7 9 4 12 -3 3 -1 11 5 19 6
7 9 13 6 13 -3 0 -9 -6 -14 -12z"/>
<path d="M1186 2917 c3 -10 9 -15 12 -12 3 3 0 11 -7 18 -10 9 -11 8 -5 -6z"/>
<path d="M1396 2875 c9 -14 19 -24 21 -21 6 6 -20 46 -30 46 -4 0 0 -11 9 -25z"/>
<path d="M1177 2871 c-4 -17 -3 -21 5 -13 5 5 8 16 6 23 -3 8 -7 3 -11 -10z"/>
<path d="M1364 2869 c-4 -7 -3 -9 4 -5 5 3 13 0 15 -6 4 -9 6 -10 6 -1 1 17
-16 25 -25 12z"/>
<path d="M1585 2739 c-4 -6 -5 -12 -2 -15 2 -3 7 2 10 11 7 17 1 20 -8 4z"/>
<path d="M890 2731 c0 -6 4 -13 10 -16 6 -3 7 1 4 9 -7 18 -14 21 -14 7z"/>
<path d="M1003 2716 c-12 -18 -10 -46 1 -38 6 4 14 7 18 7 3 0 10 4 15 8 4 5
4 8 -2 7 -21 -5 -36 0 -30 10 4 6 10 8 15 5 5 -3 11 -2 14 3 3 5 -2 9 -10 9
-8 0 -18 -5 -21 -11z"/>
<path d="M1100 2629 c-7 -11 -10 -23 -7 -25 2 -2 9 7 15 21 14 30 7 33 -8 4z"/>
<path d="M926 2622 c-2 -4 4 -8 15 -8 10 0 19 4 19 8 0 4 -6 8 -14 8 -8 0 -17
-4 -20 -8z"/>
<path d="M1075 2579 c-4 -6 -5 -12 -2 -15 2 -3 7 2 10 11 7 17 1 20 -8 4z"/>
<path d="M1520 2565 c0 -5 5 -17 10 -25 5 -8 10 -10 10 -5 0 6 -5 17 -10 25
-5 8 -10 11 -10 5z"/>
<path d="M995 2500 c-3 -5 0 -19 9 -31 l14 -21 13 24 c11 20 10 21 -3 11 -15
-13 -28 -8 -28 9 0 5 5 6 12 2 7 -4 8 -3 4 4 -9 15 -13 15 -21 2z"/>
<path d="M1847 2499 c7 -7 15 -10 18 -7 3 3 -2 9 -12 12 -14 6 -15 5 -6 -5z"/>
<path d="M1606 2475 c4 -8 8 -15 10 -15 2 0 4 7 4 15 0 8 -4 15 -10 15 -5 0
-7 -7 -4 -15z"/>
<path d="M1916 2393 c-6 -14 -5 -15 5 -6 7 7 10 15 7 18 -3 3 -9 -2 -12 -12z"/>
<path d="M766 2378 c3 -5 10 -6 15 -3 13 9 11 12 -6 12 -8 0 -12 -4 -9 -9z"/>
<path d="M906 2341 c-4 -5 -2 -12 3 -15 5 -4 12 -2 15 3 4 5 2 12 -3 15 -5 4
-12 2 -15 -3z"/>
<path d="M1935 2280 c-3 -5 -1 -10 4 -10 6 0 11 5 11 10 0 6 -2 10 -4 10 -3 0
-8 -4 -11 -10z"/>
<path d="M827 2259 c10 -10 9 -17 -5 -33 -17 -21 -17 -21 6 -2 27 23 28 32 5
41 -14 5 -15 4 -6 -6z"/>
<path d="M925 2260 c-3 -5 -5 -10 -3 -11 33 -8 38 -7 27 7 -14 17 -16 17 -24
4z"/>
<path d="M1451 2261 c-10 -7 -7 -9 12 -8 14 1 23 5 20 10 -6 9 -15 9 -32 -2z"/>
<path d="M1981 2244 c0 -11 3 -14 6 -6 3 7 2 16 -1 19 -3 4 -6 -2 -5 -13z"/>
<path d="M495 2239 c-4 -6 -5 -12 -2 -15 2 -3 7 2 10 11 7 17 1 20 -8 4z"/>
<path d="M755 2180 c-3 -6 1 -7 9 -4 18 7 21 14 7 14 -6 0 -13 -4 -16 -10z"/>
<path d="M829 2153 c-13 -16 -12 -17 4 -4 9 7 17 15 17 17 0 8 -8 3 -21 -13z"/>
<path d="M2090 2161 c0 -6 4 -13 10 -16 6 -3 7 1 4 9 -7 18 -14 21 -14 7z"/>
<path d="M730 2146 c7 -7 13 -7 20 0 6 6 3 10 -10 10 -13 0 -16 -4 -10 -10z"/>
<path d="M1745 2151 c-3 -5 -2 -12 3 -15 5 -3 9 1 9 9 0 17 -3 19 -12 6z"/>
<path d="M546 2133 c-6 -14 -5 -15 5 -6 7 7 10 15 7 18 -3 3 -9 -2 -12 -12z"/>
<path d="M1406 2103 c-6 -14 -5 -15 5 -6 7 7 10 15 7 18 -3 3 -9 -2 -12 -12z"/>
<path d="M2022 2095 c0 -16 2 -22 5 -12 2 9 2 23 0 30 -3 6 -5 -1 -5 -18z"/>
<path d="M649 2097 c11 -13 17 -15 28 -6 7 7 11 15 7 18 -4 3 -9 0 -11 -7 -4
-10 -8 -10 -21 0 -15 12 -16 11 -3 -5z"/>
<path d="M550 2080 c0 -5 5 -10 11 -10 5 0 7 5 4 10 -3 6 -8 10 -11 10 -2 0
-4 -4 -4 -10z"/>
<path d="M624 2064 c-18 -14 -18 -15 4 -4 12 6 22 13 22 15 0 8 -5 6 -26 -11z"/>
<path d="M529 2043 c-13 -16 -12 -17 4 -4 9 7 17 15 17 17 0 8 -8 3 -21 -13z"/>
<path d="M556 2041 c-4 -6 -2 -11 5 -11 8 0 8 -4 -1 -15 -11 -14 -15 -14 -36
0 -15 9 -25 11 -29 5 -4 -6 -3 -9 2 -8 4 1 17 -3 28 -9 17 -9 25 -7 50 14 17
14 24 22 16 18 -7 -4 -17 -2 -21 5 -5 9 -9 9 -14 1z"/>
<path d="M1320 2010 c8 -5 22 -9 30 -9 10 0 8 3 -5 9 -27 12 -43 12 -25 0z"/>
<path d="M619 1983 c-13 -16 -12 -17 4 -4 9 7 17 15 17 17 0 8 -8 3 -21 -13z"/>
<path d="M1078 1993 c7 -3 16 -2 19 1 4 3 -2 6 -13 5 -11 0 -14 -3 -6 -6z"/>
<path d="M449 1974 c-8 -10 -8 -14 0 -14 6 0 11 6 11 13 0 8 4 7 10 -3 8 -12
10 -12 10 -1 0 11 3 11 18 0 14 -11 15 -11 5 1 -17 19 -40 21 -54 4z"/>
<path d="M960 1986 c0 -2 7 -7 16 -10 8 -3 12 -2 9 4 -6 10 -25 14 -25 6z"/>
<path d="M2195 1980 c-3 -5 -2 -10 4 -10 5 0 13 5 16 10 3 6 2 10 -4 10 -5 0
-13 -4 -16 -10z"/>
<path d="M1315 1950 c-4 -6 -3 -10 2 -9 20 3 25 -2 13 -16 -7 -9 -11 -18 -8
-21 3 -2 13 8 23 23 10 15 14 25 10 21 -5 -4 -14 -3 -21 3 -8 7 -14 7 -19 -1z"/>
<path d="M476 1938 c5 -8 -3 -10 -41 -11 -15 0 -21 -6 -20 -23 0 -12 4 -26 8
-30 4 -5 5 -1 1 9 -4 12 -2 16 7 14 8 -2 11 -2 7 0 -14 8 -8 25 7 20 7 -3 24
2 36 12 17 14 19 18 6 18 -9 0 -14 -4 -11 -9z"/>
<path d="M645 1942 c3 -3 -1 -12 -7 -21 -8 -10 -4 -9 10 3 26 23 26 23 7 23
-8 0 -13 -3 -10 -5z"/>
<path d="M1284 1941 c4 -5 0 -11 -6 -14 -7 -3 -3 -4 9 -4 17 1 19 4 11 14 -12
15 -22 18 -14 4z"/>
<path d="M2043 1910 c0 -25 2 -35 4 -22 2 12 2 32 0 45 -2 12 -4 2 -4 -23z"/>
<path d="M273 1925 c0 -8 4 -12 9 -9 5 3 6 10 3 15 -9 13 -12 11 -12 -6z"/>
<path d="M776 1932 c-3 -4 4 -9 15 -9 23 -2 25 3 4 10 -8 4 -16 3 -19 -1z"/>
<path d="M1008 1933 c7 -3 16 -2 19 1 4 3 -2 6 -13 5 -11 0 -14 -3 -6 -6z"/>
<path d="M1158 1933 c7 -3 16 -2 19 1 4 3 -2 6 -13 5 -11 0 -14 -3 -6 -6z"/>
<path d="M948 1923 c7 -3 16 -2 19 1 4 3 -2 6 -13 5 -11 0 -14 -3 -6 -6z"/>
<path d="M995 1910 c-150 -23 -269 -83 -381 -194 -90 -90 -142 -172 -182 -285
-23 -67 -26 -91 -27 -211 0 -113 4 -147 23 -210 73 -234 272 -400 482 -400 65
0 182 30 248 64 137 71 274 219 343 372 57 126 73 205 74 364 0 138 -16 263
-36 276 -9 5 -368 -34 -381 -42 -19 -12 -5 13 55 95 34 47 71 99 81 115 l19
30 18 -23 c13 -16 19 -19 19 -8 0 13 -17 26 -45 32 -141 34 -211 40 -310 25z
m243 -23 c24 -7 44 -15 45 -19 4 -12 -137 -197 -145 -191 -5 3 -1 15 9 26 l18
22 -22 -19 c-18 -14 -20 -23 -12 -37 7 -14 6 -19 -3 -20 -7 0 -2 -5 12 -9 16
-6 86 -2 205 13 124 16 182 20 186 13 35 -57 42 -322 14 -446 -32 -136 -140
-351 -168 -333 -5 3 -7 1 -3 -5 9 -15 -105 -125 -174 -167 -161 -98 -331 -114
-476 -46 -68 32 -147 97 -137 114 3 5 2 7 -4 4 -27 -17 -117 137 -144 247 -13
49 -20 114 -21 170 0 102 10 188 22 181 5 -3 6 4 3 14 -7 26 73 195 87 186 6
-4 9 -13 6 -21 -3 -7 0 -16 7 -20 7 -4 9 -4 5 1 -4 4 -3 17 3 28 7 13 7 17 1
13 -6 -3 -13 -2 -17 4 -8 13 25 61 38 53 5 -3 7 -2 4 4 -7 11 52 69 66 65 4
-1 6 1 3 6 -8 13 40 55 54 47 6 -3 9 -1 8 6 -4 18 130 87 213 109 85 22 248
25 317 7z"/>
<path d="M1245 1850 c-10 -11 -16 -22 -14 -24 2 -2 12 7 22 20 22 29 17 32 -8
4z"/>
<path d="M1166 1744 c-5 -14 -4 -15 9 -4 17 14 19 20 6 20 -5 0 -12 -7 -15
-16z"/>
<path d="M695 1741 c-3 -5 -2 -12 3 -15 5 -3 9 1 9 9 0 17 -3 19 -12 6z"/>
<path d="M1126 1723 c-6 -14 -5 -15 5 -6 7 7 10 15 7 18 -3 3 -9 -2 -12 -12z"/>
<path d="M625 1649 c-4 -6 -14 -8 -24 -4 -13 5 -14 4 -3 -6 10 -11 15 -10 29
4 10 9 14 17 11 17 -4 0 -10 -5 -13 -11z"/>
<path d="M573 1455 c0 -8 4 -12 9 -9 5 3 6 10 3 15 -9 13 -12 11 -12 -6z"/>
<path d="M590 1435 c-7 -8 -15 -13 -19 -10 -12 7 -7 -133 5 -145 8 -8 105 -11
315 -9 167 1 311 2 320 2 11 1 14 8 11 21 -3 10 -1 17 4 13 11 -6 3 112 -9
131 -6 9 -80 12 -311 12 -257 0 -305 -2 -316 -15z m620 -70 c0 -54 -3 -66 -20
-75 -12 -7 -122 -9 -312 -8 l-293 3 -3 49 c-2 27 -1 60 3 73 l5 23 303 2 c166
2 305 2 310 0 4 -2 7 -32 7 -67z"/>
<path d="M605 1410 c-3 -6 1 -7 9 -4 18 7 21 14 7 14 -6 0 -13 -4 -16 -10z"/>
<path d="M1038 1413 c23 -2 59 -2 80 0 20 2 1 4 -43 4 -44 0 -61 -2 -37 -4z"/>
<path d="M610 1310 c-13 -8 -12 -10 3 -10 9 0 17 5 17 10 0 12 -1 12 -20 0z"/>
<path d="M762 1303 c70 -2 187 -2 260 0 73 1 16 3 -127 3 -143 0 -203 -2 -133
-3z"/>
<path d="M466 1417 c3 -10 9 -15 12 -12 3 3 0 11 -7 18 -10 9 -11 8 -5 -6z"/>
<path d="M1252 1370 c0 -14 2 -19 5 -12 2 6 2 18 0 25 -3 6 -5 1 -5 -13z"/>
<path d="M560 1251 c0 -10 19 -25 25 -20 1 2 -3 10 -11 17 -8 7 -14 8 -14 3z"/>
<path d="M643 1243 c9 -2 25 -2 35 0 9 3 1 5 -18 5 -19 0 -27 -2 -17 -5z"/>
<path d="M1338 1225 c-3 -3 -173 -6 -377 -5 -272 0 -371 -3 -371 -11 0 -8 -6
-7 -17 2 -16 13 -17 12 -5 -3 9 -11 10 -18 2 -23 -13 -8 -13 -132 0 -140 5 -3
7 -13 4 -23 -4 -12 -3 -13 3 -4 10 14 46 6 38 -8 -3 -5 -1 -12 5 -15 6 -4 9
-1 8 7 -2 10 63 14 343 18 264 4 350 8 362 18 21 17 28 149 9 157 -7 3 -10 9
-7 15 4 6 11 7 17 4 7 -4 8 -2 4 4 -8 14 -10 14 -18 7z m-8 -44 c13 -25 13
-97 0 -122 -10 -18 -25 -19 -375 -19 -350 0 -365 1 -375 19 -15 29 -12 93 6
119 l15 22 359 0 c345 0 360 -1 370 -19z"/>
<path d="M638 1184 c-4 -3 -14 -7 -25 -8 -15 -2 -18 -13 -19 -62 -1 -43 0 -47
3 -15 7 71 16 75 182 82 l146 5 -141 2 c-77 1 -143 -1 -146 -4z"/>
<path d="M988 1183 c34 -2 88 -2 120 0 31 2 3 3 -63 3 -66 0 -92 -1 -57 -3z"/>
<path d="M1296 1176 c10 -8 21 -12 24 -10 5 6 -21 24 -34 24 -6 0 -1 -6 10
-14z"/>
<path d="M1310 1111 c0 -22 -5 -42 -12 -44 -8 -3 -6 -6 5 -6 14 -1 17 8 17 44
0 25 -2 45 -5 45 -3 0 -5 -18 -5 -39z"/>
<path d="M630 1067 c0 -10 8 -17 18 -17 9 0 13 4 7 8 -5 4 -13 11 -17 16 -5 5
-8 2 -8 -7z"/>
<path d="M743 1053 c37 -2 96 -2 130 0 34 2 4 3 -68 3 -71 0 -99 -1 -62 -3z"/>
<path d="M968 1053 c18 -2 45 -2 60 0 15 2 0 4 -33 4 -33 0 -45 -2 -27 -4z"/>
<path d="M431 1194 c0 -11 3 -14 6 -6 3 7 2 16 -1 19 -3 4 -6 -2 -5 -13z"/>
<path d="M461 1104 c0 -11 3 -14 6 -6 3 7 2 16 -1 19 -3 4 -6 -2 -5 -13z"/>
<path d="M456 1027 c3 -10 9 -15 12 -12 3 3 0 11 -7 18 -10 9 -11 8 -5 -6z"/>
<path d="M460 991 c0 -6 4 -13 10 -16 6 -3 7 1 4 9 -7 18 -14 21 -14 7z"/>
<path d="M580 969 c0 -5 -4 -8 -8 -5 -13 8 -6 -133 8 -149 11 -13 52 -15 284
-13 l271 3 3 73 c2 46 -2 79 -9 88 -9 11 -61 14 -280 14 -183 0 -269 -3 -269
-11z m548 -74 c3 -48 0 -62 -15 -73 -23 -16 -500 -17 -520 0 -14 11 -18 119
-6 131 4 4 126 6 272 5 l266 -3 3 -60z"/>
<path d="M602 920 c0 -19 2 -27 5 -17 2 9 2 25 0 35 -3 9 -5 1 -5 -18z"/>
<path d="M627 943 c-5 -9 432 -8 440 1 3 2 -94 5 -215 6 -121 0 -223 -3 -225
-7z"/>
<path d="M1085 940 c3 -5 11 -10 16 -10 6 0 7 5 4 10 -3 6 -11 10 -16 10 -6 0
-7 -4 -4 -10z"/>
<path d="M1100 880 l0 -40 -244 0 c-186 0 -246 3 -249 13 -3 7 -6 5 -6 -5 -1
-17 18 -18 254 -18 l255 0 0 45 c0 25 -2 45 -5 45 -3 0 -5 -18 -5 -40z"/>
<path d="M1379 963 c-12 -14 -12 -16 0 -8 11 6 13 4 8 -8 -10 -26 8 -29 29 -4
19 21 19 21 0 7 -18 -14 -19 -13 -13 2 9 24 -8 31 -24 11z"/>
<path d="M1363 921 c0 -11 5 -18 9 -15 4 3 5 11 1 19 -7 21 -12 19 -10 -4z"/>
<path d="M523 890 c-8 -12 -9 -21 -3 -25 6 -4 9 -1 8 7 -2 7 2 12 9 11 7 -2
10 4 7 12 -8 19 -7 19 -21 -5z"/>
<path d="M539 853 c-13 -16 -12 -17 4 -4 9 7 17 15 17 17 0 8 -8 3 -21 -13z"/>
<path d="M1270 826 c0 -2 8 -10 18 -17 15 -13 16 -12 3 4 -13 16 -21 21 -21
13z"/>
<path d="M1196 802 c-3 -5 1 -9 9 -9 8 0 12 4 9 9 -3 4 -7 8 -9 8 -2 0 -6 -4
-9 -8z"/>
<path d="M1248 780 c-26 -24 -22 -35 4 -10 12 11 20 22 17 24 -2 2 -12 -4 -21
-14z"/>
<path d="M1203 765 c0 -8 4 -12 9 -9 5 3 6 10 3 15 -9 13 -12 11 -12 -6z"/>
<path d="M684 736 c1 -8 5 -18 8 -22 4 -3 5 1 4 10 -1 8 -5 18 -8 22 -4 3 -5
-1 -4 -10z"/>
<path d="M646 728 c3 -5 10 -6 15 -3 13 9 11 12 -6 12 -8 0 -12 -4 -9 -9z"/>
<path d="M1582 1900 c-18 -29 -15 -38 4 -12 9 13 14 25 12 27 -2 2 -9 -5 -16
-15z"/>
<path d="M719 1893 c-13 -16 -12 -17 4 -4 9 7 17 15 17 17 0 8 -8 3 -21 -13z"/>
<path d="M546 1883 c-6 -14 -5 -15 5 -6 7 7 10 15 7 18 -3 3 -9 -2 -12 -12z"/>
<path d="M496 1863 c-6 -14 -5 -15 5 -6 7 7 10 15 7 18 -3 3 -9 -2 -12 -12z"/>
<path d="M700 1851 c-8 -6 -19 -7 -25 -4 -5 4 -7 2 -2 -2 12 -14 44 -13 44 2
0 7 -1 13 -1 13 -1 0 -8 -4 -16 -9z"/>
<path d="M1360 1850 c0 -5 5 -10 10 -10 6 0 10 -8 11 -17 0 -11 3 -13 6 -5 2
6 9 10 14 6 21 -13 7 5 -16 20 -14 9 -25 12 -25 6z"/>
<path d="M500 1835 c-11 -13 -15 -13 -21 -3 -7 10 -9 10 -9 -2 0 -11 -2 -12
-8 -2 -6 9 -15 5 -33 -15 -16 -18 -17 -22 -4 -11 29 24 84 11 68 -15 -4 -7 1
-6 10 2 14 11 15 16 5 29 -11 13 -10 15 3 10 10 -4 16 -1 16 8 0 18 -11 18
-27 -1z"/>
<path d="M1463 1815 c0 -8 4 -12 9 -9 5 3 6 10 3 15 -9 13 -12 11 -12 -6z"/>
<path d="M679 1803 c-13 -16 -12 -17 4 -4 9 7 17 15 17 17 0 8 -8 3 -21 -13z"/>
<path d="M605 1781 c-9 -15 15 -25 28 -12 9 9 7 10 -7 5 -13 -5 -17 -4 -12 4
4 7 5 12 2 12 -3 0 -7 -4 -11 -9z"/>
<path d="M430 1776 c0 -2 7 -7 16 -10 8 -3 12 -2 9 4 -6 10 -25 14 -25 6z"/>
<path d="M1256 1771 c-3 -5 2 -15 12 -22 15 -12 16 -12 5 2 -7 9 -10 19 -6 22
3 4 4 7 0 7 -3 0 -8 -4 -11 -9z"/>
<path d="M550 1755 c0 -7 30 -13 34 -7 3 4 -4 9 -15 9 -10 1 -19 0 -19 -2z"/>
<path d="M1543 1753 c9 -2 23 -2 30 0 6 3 -1 5 -18 5 -16 0 -22 -2 -12 -5z"/>
<path d="M2278 1753 c7 -3 16 -2 19 1 4 3 -2 6 -13 5 -11 0 -14 -3 -6 -6z"/>
<path d="M1438 1743 c6 -2 18 -2 25 0 6 3 1 5 -13 5 -14 0 -19 -2 -12 -5z"/>
<path d="M2463 1735 c0 -8 4 -12 9 -9 5 3 6 10 3 15 -9 13 -12 11 -12 -6z"/>
<path d="M2041 1724 c0 -11 3 -14 6 -6 3 7 2 16 -1 19 -3 4 -6 -2 -5 -13z"/>
<path d="M504 1663 c-11 -18 -12 -24 -3 -16 8 6 17 11 21 10 3 -1 10 2 15 7 5
6 2 6 -6 1 -11 -6 -13 -4 -8 8 9 25 2 21 -19 -10z"/>
<path d="M1560 1679 c0 -5 5 -7 10 -4 6 3 10 8 10 11 0 2 -4 4 -10 4 -5 0 -10
-5 -10 -11z"/>
<path d="M1198 1673 c6 -2 18 -2 25 0 6 3 1 5 -13 5 -14 0 -19 -2 -12 -5z"/>
<path d="M254 1650 c0 -13 4 -16 10 -10 7 7 7 13 0 20 -6 6 -10 3 -10 -10z"/>
<path d="M456 1654 c-16 -15 -13 -39 4 -29 5 3 11 1 15 -5 3 -5 0 -10 -7 -10
-10 0 -9 -3 2 -9 23 -16 33 -1 13 21 -20 23 -20 27 -1 39 9 6 9 9 1 9 -6 0
-19 -7 -27 -16z"/>
<path d="M1611 1644 c0 -11 3 -14 6 -6 3 7 2 16 -1 19 -3 4 -6 -2 -5 -13z"/>
<path d="M420 1601 c-7 -15 -7 -19 5 -17 8 1 18 6 22 11 5 4 2 5 -6 0 -11 -6
-13 -4 -8 8 9 23 0 21 -13 -2z"/>
<path d="M315 1601 c-3 -5 0 -13 6 -17 7 -4 9 -3 5 4 -3 5 0 13 6 15 9 4 10 6
1 6 -6 1 -14 -3 -18 -8z"/>
<path d="M216 1583 c-6 -14 -5 -15 5 -6 7 7 10 15 7 18 -3 3 -9 -2 -12 -12z"/>
<path d="M460 1580 c0 -5 5 -10 11 -10 5 0 7 5 4 10 -3 6 -8 10 -11 10 -2 0
-4 -4 -4 -10z"/>
<path d="M2032 1570 c0 -14 2 -19 5 -12 2 6 2 18 0 25 -3 6 -5 1 -5 -13z"/>
<path d="M300 1575 c0 -5 5 -17 10 -25 5 -8 10 -10 10 -5 0 6 -5 17 -10 25 -5
8 -10 11 -10 5z"/>
<path d="M140 1551 c0 -6 4 -13 10 -16 6 -3 7 1 4 9 -7 18 -14 21 -14 7z"/>
<path d="M181 1543 c11 -19 15 -20 22 -7 5 9 6 18 3 21 -3 4 -6 1 -6 -7 0 -10
-3 -10 -17 1 -15 13 -15 12 -2 -8z"/>
<path d="M325 1530 c-3 -5 -1 -10 4 -10 6 0 11 5 11 10 0 6 -2 10 -4 10 -3 0
-8 -4 -11 -10z"/>
<path d="M160 1511 c0 -6 4 -13 10 -16 6 -3 7 1 4 9 -7 18 -14 21 -14 7z"/>
<path d="M137 1486 c-4 -10 -1 -13 8 -9 8 3 12 9 9 14 -7 12 -11 11 -17 -5z"/>
<path d="M415 1481 c-3 -5 -2 -12 3 -15 5 -3 9 1 9 9 0 17 -3 19 -12 6z"/>
<path d="M1603 1430 c0 -30 2 -43 4 -27 2 15 2 39 0 55 -2 15 -4 2 -4 -28z"/>
<path d="M356 1455 c-3 -9 -6 -22 -5 -28 0 -7 5 -1 10 12 5 13 8 26 5 28 -2 2
-6 -3 -10 -12z"/>
<path d="M403 1435 c-3 -9 -3 -18 -1 -21 3 -3 8 4 11 16 6 23 -1 27 -10 5z"/>
<path d="M291 1404 c0 -11 3 -14 6 -6 3 7 2 16 -1 19 -3 4 -6 -2 -5 -13z"/>
<path d="M335 1364 c-9 -60 -2 -65 11 -8 6 25 7 47 3 49 -4 3 -10 -16 -14 -41z"/>
<path d="M2060 1401 c0 -6 4 -13 10 -16 6 -3 7 1 4 9 -7 18 -14 21 -14 7z"/>
<path d="M155 1389 c-4 -6 -5 -12 -2 -15 2 -3 7 2 10 11 7 17 1 20 -8 4z"/>
<path d="M391 1384 c0 -11 3 -14 6 -6 3 7 2 16 -1 19 -3 4 -6 -2 -5 -13z"/>
<path d="M132 1365 c0 -16 2 -22 5 -12 2 9 2 23 0 30 -3 6 -5 -1 -5 -18z"/>
<path d="M382 1335 c0 -16 2 -22 5 -12 2 9 2 23 0 30 -3 6 -5 -1 -5 -18z"/>
<path d="M1652 1340 c0 -14 2 -19 5 -12 2 6 2 18 0 25 -3 6 -5 1 -5 -13z"/>
<path d="M2340 1341 c0 -6 4 -13 10 -16 6 -3 7 1 4 9 -7 18 -14 21 -14 7z"/>
<path d="M1974 1282 c-2 -37 -2 -37 8 -9 6 16 6 33 2 37 -5 5 -10 -7 -10 -28z"/>
<path d="M1721 1294 c0 -11 3 -14 6 -6 3 7 2 16 -1 19 -3 4 -6 -2 -5 -13z"/>
<path d="M1591 1284 c0 -11 3 -14 6 -6 3 7 2 16 -1 19 -3 4 -6 -2 -5 -13z"/>
<path d="M373 1215 c0 -27 2 -38 4 -22 2 15 2 37 0 50 -2 12 -4 0 -4 -28z"/>
<path d="M323 1200 c0 -30 2 -43 4 -27 2 15 2 39 0 55 -2 15 -4 2 -4 -28z"/>
<path d="M1581 1234 c0 -11 3 -14 6 -6 3 7 2 16 -1 19 -3 4 -6 -2 -5 -13z"/>
<path d="M1941 1230 c0 -8 4 -22 9 -30 12 -18 12 -2 0 25 -6 13 -9 15 -9 5z"/>
<path d="M1631 1215 c-1 -11 -4 -31 -6 -45 l-6 -25 11 25 c6 13 9 33 7 45 -4
19 -4 19 -6 0z"/>
<path d="M1935 1170 c3 -5 8 -10 11 -10 2 0 4 5 4 10 0 6 -5 10 -11 10 -5 0
-7 -4 -4 -10z"/>
<path d="M1923 1132 c-1 -22 0 -24 9 -8 6 10 6 22 2 26 -5 5 -10 -3 -11 -18z"/>
<path d="M382 1115 c0 -16 2 -22 5 -12 2 9 2 23 0 30 -3 6 -5 -1 -5 -18z"/>
<path d="M332 1105 c0 -16 4 -43 8 -60 11 -42 11 -1 1 50 -7 34 -9 35 -9 10z"/>
<path d="M381 1063 c7 -12 15 -20 18 -17 3 2 -3 12 -13 22 -17 16 -18 16 -5
-5z"/>
<path d="M73 1025 c0 -22 2 -30 4 -17 2 12 2 30 0 40 -3 9 -5 -1 -4 -23z"/>
<path d="M2362 1040 c0 -14 2 -19 5 -12 2 6 2 18 0 25 -3 6 -5 1 -5 -13z"/>
<path d="M1576 1035 c-9 -26 -7 -32 5 -12 6 10 9 21 6 23 -2 3 -7 -2 -11 -11z"/>
<path d="M1876 1023 c-6 -14 -5 -15 5 -6 7 7 10 15 7 18 -3 3 -9 -2 -12 -12z"/>
<path d="M401 1014 c0 -11 3 -14 6 -6 3 7 2 16 -1 19 -3 4 -6 -2 -5 -13z"/>
<path d="M353 1005 c-3 -9 -3 -18 -1 -21 3 -3 8 4 11 16 6 23 -1 27 -10 5z"/>
<path d="M1850 1001 c0 -6 4 -13 10 -16 6 -3 7 1 4 9 -7 18 -14 21 -14 7z"/>
<path d="M2342 989 c-7 -12 -11 -24 -8 -27 3 -3 6 1 6 9 0 12 2 12 9 0 6 -9 9
-5 9 13 0 31 0 31 -16 5z"/>
<path d="M400 981 c0 -6 4 -13 10 -16 6 -3 7 1 4 9 -7 18 -14 21 -14 7z"/>
<path d="M1490 979 c0 -5 5 -7 10 -4 6 3 10 8 10 11 0 2 -4 4 -10 4 -5 0 -10
-5 -10 -11z"/>
<path d="M1514 968 c-3 -4 5 -5 17 -3 30 6 36 14 9 12 -12 -1 -24 -5 -26 -9z"/>
<path d="M361 965 c0 -5 6 -21 14 -35 8 -14 14 -20 14 -15 0 6 -6 21 -14 35
-8 14 -14 21 -14 15z"/>
<path d="M1470 951 c0 -6 4 -12 8 -15 5 -3 9 1 9 9 0 8 -4 15 -9 15 -4 0 -8
-4 -8 -9z"/>
<path d="M411 932 c-7 -14 -6 -19 4 -19 7 0 11 7 7 15 -4 11 -1 13 8 7 9 -5
11 -4 6 3 -10 16 -14 15 -25 -6z"/>
<path d="M1524 924 c-11 -15 -20 -21 -24 -14 -4 7 -14 2 -26 -12 -14 -17 -15
-19 -2 -9 9 7 21 10 27 7 5 -4 19 7 31 24 12 16 19 30 16 30 -3 0 -13 -12 -22
-26z"/>
<path d="M1828 939 c-10 -5 -18 -17 -18 -25 0 -8 -4 -12 -10 -9 -5 3 -7 0 -4
-8 3 -8 -2 -20 -11 -27 -8 -7 -15 -17 -15 -23 0 -6 11 4 25 23 14 19 25 38 25
43 0 6 8 16 18 23 20 16 14 18 -10 3z"/>
<path d="M1456 913 c-6 -14 -5 -15 5 -6 7 7 10 15 7 18 -3 3 -9 -2 -12 -12z"/>
<path d="M431 903 c-12 -14 -12 -15 0 -11 8 3 20 -2 27 -11 11 -13 11 -12 1 9
-6 14 -12 26 -13 26 0 1 -7 -5 -15 -13z"/>
<path d="M210 888 c-10 -21 -10 -22 3 -5 11 14 16 15 20 5 4 -9 6 -9 6 -1 2
23 -18 23 -29 1z"/>
<path d="M2006 887 c3 -10 9 -15 12 -12 3 3 0 11 -7 18 -10 9 -11 8 -5 -6z"/>
<path d="M2034 880 c0 -13 4 -16 10 -10 7 7 7 13 0 20 -6 6 -10 3 -10 -10z"/>
<path d="M2057 867 l-17 -32 20 24 c17 20 26 41 18 41 -2 0 -11 -15 -21 -33z"/>
<path d="M1410 863 c-23 -23 -23 -24 -3 -14 22 11 38 30 32 35 -2 2 -15 -8
-29 -21z"/>
<path d="M406 872 c-5 -8 60 -122 69 -122 2 0 2 8 0 18 -2 9 -4 21 -4 25 -1 5
-5 6 -10 3 -17 -11 -20 22 -4 36 14 11 16 11 11 -4 -4 -10 -2 -15 7 -14 23 3
29 15 11 22 -9 3 -13 10 -10 15 3 5 -2 6 -10 3 -8 -3 -17 -13 -21 -22 -5 -14
-8 -13 -20 8 -7 14 -11 28 -9 32 3 5 3 8 0 8 -3 0 -7 -4 -10 -8z"/>
<path d="M1463 853 c4 -3 1 -13 -6 -22 -11 -14 -10 -14 5 -2 16 12 16 31 1 31
-4 0 -3 -3 0 -7z"/>
<path d="M1552 847 c-8 -10 -6 -13 7 -13 11 0 17 6 14 13 -3 7 -6 13 -8 13 -1
0 -7 -6 -13 -13z"/>
<path d="M231 808 c5 -10 11 -18 12 -18 2 0 3 8 3 18 0 10 -6 19 -13 19 -8 0
-9 -6 -2 -19z"/>
<path d="M1685 820 c-4 -6 0 -19 8 -28 8 -9 12 -24 10 -32 -4 -13 -3 -13 6 0
7 10 6 19 -5 31 -22 24 -17 31 10 14 28 -19 44 -4 19 16 -12 10 -14 10 -9 2 9
-16 -6 -17 -21 -2 -8 8 -13 8 -18 -1z"/>
<path d="M1414 804 c-10 -8 -13 -12 -5 -8 11 5 13 3 7 -11 -7 -18 -6 -18 13
-1 11 10 18 23 15 27 -7 12 -7 12 -30 -7z"/>
<path d="M500 788 c-12 -8 -12 -9 2 -4 10 3 18 -1 21 -12 4 -16 5 -16 6 0 1
22 -11 29 -29 16z"/>
<path d="M1325 770 c-3 -6 1 -7 9 -4 18 7 21 14 7 14 -6 0 -13 -4 -16 -10z"/>
<path d="M1983 773 c-7 -2 -13 -11 -13 -19 0 -17 -12 -18 -27 -3 -7 7 -13 7
-17 1 -3 -6 -2 -13 4 -17 5 -3 10 -3 10 1 0 3 6 2 13 -4 9 -8 17 -3 29 19 9
16 16 29 15 28 -1 0 -8 -3 -14 -6z"/>
<path d="M498 755 c5 -11 7 -25 5 -31 -2 -6 9 -22 25 -35 52 -43 87 -68 95
-68 5 0 14 -7 21 -16 13 -19 137 -65 169 -64 14 1 9 5 -16 11 -35 9 -37 11
-20 25 17 13 16 13 -4 4 -33 -16 -55 -13 -52 7 3 31 -1 34 -24 19 -25 -16 -55
-8 -43 12 4 6 4 11 -1 10 -20 -3 -25 2 -13 15 11 14 44 11 36 -3 -3 -4 4 -7
15 -7 25 0 24 3 -11 21 -35 18 -45 19 -45 3 0 -13 -33 -20 -40 -7 -3 4 3 14
14 21 14 9 17 16 10 24 -6 7 -16 11 -22 8 -7 -2 -21 12 -31 31 -11 19 -21 33
-23 31 -3 -2 3 -16 13 -30 9 -15 14 -29 11 -33 -8 -7 -37 16 -34 27 1 4 -1 7
-5 7 -4 -1 -14 7 -23 18 l-16 20 9 -20z m28 -24 c-6 -9 27 -43 40 -40 5 1 17
1 28 0 15 -1 16 -4 6 -16 -17 -20 -20 -19 -58 15 -28 24 -36 50 -16 50 3 0 3
-4 0 -9z m188 -136 c-7 -16 -24 -21 -24 -6 0 8 7 13 27 20 1 1 0 -6 -3 -14z"/>
<path d="M1766 762 c-3 -5 1 -9 9 -9 8 0 12 4 9 9 -3 4 -7 8 -9 8 -2 0 -6 -4
-9 -8z"/>
<path d="M1283 738 c-26 -29 -28 -61 -3 -48 10 5 20 17 24 27 5 16 4 15 -9 -1
-8 -11 -18 -16 -22 -13 -3 4 4 18 17 32 13 14 21 25 18 25 -2 0 -14 -10 -25
-22z"/>
<path d="M1366 734 c-15 -14 -26 -27 -24 -29 2 -3 17 9 33 25 35 36 30 39 -9
4z"/>
<path d="M1646 725 c-16 -24 -45 -37 -30 -13 5 7 3 8 -6 3 -10 -6 -10 -10 3
-20 13 -9 14 -15 4 -26 -7 -8 7 4 31 26 42 39 58 60 25 34 -15 -12 -16 -12
-10 4 9 24 2 21 -17 -8z m14 -9 c0 -2 -8 -10 -17 -17 -16 -13 -17 -12 -4 4 13
16 21 21 21 13z"/>
<path d="M407 700 c3 -11 9 -22 13 -25 5 -3 6 4 3 15 -3 11 -9 22 -13 25 -5 3
-6 -4 -3 -15z"/>
<path d="M1315 710 c-3 -5 -3 -10 1 -10 4 0 -1 -10 -12 -22 -19 -23 -19 -23 2
-5 11 9 21 24 21 32 0 18 -3 19 -12 5z"/>
<path d="M1741 697 c-13 -21 -12 -21 5 -5 10 10 16 20 13 22 -3 3 -11 -5 -18
-17z"/>
<path d="M446 692 c-3 -5 1 -9 9 -9 8 0 12 4 9 9 -3 4 -7 8 -9 8 -2 0 -6 -4
-9 -8z"/>
<path d="M1214 684 c-18 -14 -18 -14 6 -3 31 14 36 19 24 19 -6 0 -19 -7 -30
-16z"/>
<path d="M246 681 c-4 -5 -2 -12 3 -15 5 -4 12 -2 15 3 4 5 2 12 -3 15 -5 4
-12 2 -15 -3z"/>
<path d="M1235 661 c6 -11 4 -13 -10 -7 -15 5 -16 4 -5 -9 7 -8 16 -15 20 -15
10 0 7 27 -5 37 -4 5 -5 2 0 -6z"/>
<path d="M1543 663 c4 -6 1 -16 -7 -22 -14 -12 -16 -34 -3 -38 16 -6 20 -2 9
9 -9 9 -8 16 4 29 12 13 12 19 3 25 -7 4 -10 3 -6 -3z"/>
<path d="M1581 656 c-8 -10 -9 -16 -1 -21 5 -3 10 -5 11 -3 4 18 7 38 4 38 -1
0 -8 -6 -14 -14z"/>
<path d="M1844 659 c-2 -4 2 -11 9 -17 9 -8 19 -6 35 6 l22 17 -31 0 c-17 1
-32 -2 -35 -6z m36 -5 c0 -8 -19 -13 -24 -6 -3 5 1 9 9 9 8 0 15 -2 15 -3z"/>
<path d="M490 656 c0 -2 8 -10 18 -17 15 -13 16 -12 3 4 -13 16 -21 21 -21 13z"/>
<path d="M476 631 c-4 -5 -2 -12 3 -15 5 -4 12 -2 15 3 4 5 2 12 -3 15 -5 4
-12 2 -15 -3z"/>
<path d="M229 617 c6 -8 7 -18 3 -22 -4 -5 -1 -5 6 -1 10 6 10 11 1 22 -6 8
-14 14 -16 14 -3 0 0 -6 6 -13z"/>
<path d="M1070 620 c-11 -8 -7 -9 15 -4 37 8 45 14 19 14 -10 0 -26 -5 -34
-10z"/>
<path d="M1639 613 c-13 -16 -12 -17 4 -4 16 13 21 21 13 21 -2 0 -10 -8 -17
-17z"/>
<path d="M763 606 c0 -8 8 -11 20 -8 14 4 16 7 5 13 -19 12 -25 11 -25 -5z"/>
<path d="M1337 609 c7 -7 15 -10 18 -7 3 3 -2 9 -12 12 -14 6 -15 5 -6 -5z"/>
<path d="M1150 590 c-19 -11 -30 -19 -25 -19 6 0 26 8 45 19 19 11 31 19 25
19 -5 0 -26 -8 -45 -19z"/>
<path d="M1980 600 c-9 -6 -10 -10 -3 -10 6 0 15 5 18 10 8 12 4 12 -15 0z"/>
<path d="M547 589 c7 -7 15 -10 18 -7 3 3 -2 9 -12 12 -14 6 -15 5 -6 -5z"/>
<path d="M823 593 c9 -2 23 -2 30 0 6 3 -1 5 -18 5 -16 0 -22 -2 -12 -5z"/>
<path d="M973 593 c9 -2 23 -2 30 0 6 3 -1 5 -18 5 -16 0 -22 -2 -12 -5z"/>
<path d="M416 582 c5 -4 12 -11 15 -15 3 -5 9 -2 12 5 3 9 -3 14 -15 15 -11 1
-16 -1 -12 -5z"/>
<path d="M883 583 c9 -2 23 -2 30 0 6 3 -1 5 -18 5 -16 0 -22 -2 -12 -5z"/>
<path d="M1244 579 c-3 -6 -1 -16 5 -22 9 -9 10 -7 5 7 -6 16 -4 18 10 13 10
-4 15 -3 11 3 -8 13 -22 13 -31 -1z"/>
<path d="M1445 570 c2 -11 -3 -24 -13 -30 -9 -5 -12 -10 -5 -10 21 0 40 45 23
55 -5 3 -7 -4 -5 -15z"/>
<path d="M1494 574 c-18 -14 -18 -15 4 -4 12 6 22 13 22 15 0 8 -5 6 -26 -11z"/>
<path d="M467 569 c7 -7 15 -10 18 -7 3 3 -2 9 -12 12 -14 6 -15 5 -6 -5z"/>
<path d="M1090 569 c0 -5 5 -7 10 -4 6 3 10 8 10 11 0 2 -4 4 -10 4 -5 0 -10
-5 -10 -11z"/>
<path d="M1782 573 c2 -4 1 -8 -2 -8 -3 0 -19 -10 -36 -22 -17 -12 -33 -20
-36 -18 -3 3 -5 -2 -5 -10 0 -11 8 -9 32 10 18 13 35 22 37 19 3 -2 11 2 17
10 8 10 9 16 1 21 -6 4 -9 3 -8 -2z"/>
<path d="M1030 560 c12 -8 9 -10 -14 -10 -16 0 -27 -3 -23 -6 3 -3 24 -3 47 1
47 8 47 9 5 19 -22 5 -26 4 -15 -4z"/>
<path d="M1586 537 c3 -10 9 -15 12 -12 3 3 0 11 -7 18 -10 9 -11 8 -5 -6z"/>
<path d="M518 533 c7 -3 16 -2 19 1 4 3 -2 6 -13 5 -11 0 -14 -3 -6 -6z"/>
<path d="M570 536 c0 -3 9 -10 20 -16 11 -6 20 -8 20 -6 0 3 -9 10 -20 16 -11
6 -20 8 -20 6z"/>
<path d="M878 533 c12 -2 32 -2 45 0 12 2 2 4 -23 4 -25 0 -35 -2 -22 -4z"/>
<path d="M500 516 c0 -2 7 -7 16 -10 8 -3 12 -2 9 4 -6 10 -25 14 -25 6z"/>
<path d="M280 506 c0 -2 7 -7 16 -10 8 -3 12 -2 9 4 -6 10 -25 14 -25 6z"/>
<path d="M550 500 c0 -5 5 -10 11 -10 5 0 7 5 4 10 -3 6 -8 10 -11 10 -2 0 -4
-4 -4 -10z"/>
<path d="M1363 500 c-13 -5 -23 -11 -23 -14 0 -7 40 6 46 15 6 10 6 10 -23 -1z"/>
<path d="M2107 503 c-11 -10 -8 -20 7 -26 8 -3 13 0 12 8 -3 19 -11 27 -19 18z"/>
<path d="M1642 486 c7 -8 17 -12 22 -9 4 3 2 9 -5 14 -22 13 -31 11 -17 -5z"/>
<path d="M1405 460 c-3 -6 1 -7 9 -4 18 7 21 14 7 14 -6 0 -13 -4 -16 -10z"/>
<path d="M818 443 c7 -3 16 -2 19 1 4 3 -2 6 -13 5 -11 0 -14 -3 -6 -6z"/>
<path d="M1215 440 c-3 -5 -2 -10 4 -10 5 0 13 5 16 10 3 6 2 10 -4 10 -5 0
-13 -4 -16 -10z"/>
<path d="M748 403 c7 -3 16 -2 19 1 4 3 -2 6 -13 5 -11 0 -14 -3 -6 -6z"/>
<path d="M1338 363 c7 -3 16 -2 19 1 4 3 -2 6 -13 5 -11 0 -14 -3 -6 -6z"/>
<path d="M1078 343 c7 -3 16 -2 19 1 4 3 -2 6 -13 5 -11 0 -14 -3 -6 -6z"/>
<path d="M339 283 c-13 -16 -12 -17 4 -4 16 13 21 21 13 21 -2 0 -10 -8 -17
-17z"/>
<path d="M2050 290 c-9 -6 -10 -10 -3 -10 6 0 15 5 18 10 8 12 4 12 -15 0z"/>
<path d="M435 231 c-3 -5 -2 -12 3 -15 5 -3 9 1 9 9 0 17 -3 19 -12 6z"/>
<path d="M1620 125 c-14 -8 -20 -14 -14 -15 5 0 19 7 30 15 24 18 16 19 -16 0z"/>
<path d="M1540 96 c4 -4 16 -4 26 2 16 9 14 10 -8 9 -15 -1 -23 -6 -18 -11z"/>
<path d="M1348 93 c7 -3 16 -2 19 1 4 3 -2 6 -13 5 -11 0 -14 -3 -6 -6z"/>
<path d="M1390 70 c-23 -7 -23 -8 -3 -9 12 -1 25 4 28 9 3 6 5 10 3 9 -2 -1
-14 -5 -28 -9z"/>
</g>
</svg>
