<?xml version="1.0" encoding="UTF-8"?>
<svg version="1.1" xmlns="http://www.w3.org/2000/svg" width="253" height="331">
<path d="M0 0 C2.51058603 3.13576288 4.33223321 6.38414823 6.15234375 9.9609375 C6.44836487 10.53912735 6.74438599 11.1173172 7.04937744 11.71302795 C7.68446895 12.9536019 8.31806128 14.19494427 8.95028687 15.4369812 C10.62901095 18.73251964 12.32161928 22.02089008 14.015625 25.30859375 C14.35534836 25.96801468 14.69507172 26.62743561 15.04508972 27.30683899 C18.01606952 33.05919768 21.07650459 38.75961976 24.1875 44.4375 C24.89519531 45.73965454 24.89519531 45.73965454 25.6171875 47.06811523 C28.17686861 51.75780421 30.80732357 56.39440762 33.515625 61 C34.08772705 61.99330322 34.6598291 62.98660645 35.24926758 64.01000977 C36.34716318 65.91382267 37.46583315 67.80585641 38.6081543 69.68334961 C39.09711182 70.53936768 39.58606934 71.39538574 40.08984375 72.27734375 C40.53191162 73.02234131 40.97397949 73.76733887 41.42944336 74.53491211 C42.28562661 78.23404871 40.69621083 80.79492935 39 84 C38.18293579 85.5775708 38.18293579 85.5775708 37.34936523 87.18701172 C36.75841064 88.25709473 36.16745605 89.32717773 35.55859375 90.4296875 C35.23445496 91.01807404 34.91031616 91.60646057 34.57635498 92.212677 C33.53373215 94.10217036 32.48594322 95.98873096 31.4375 97.875 C30.71589483 99.17838162 29.99429656 100.48176705 29.27270508 101.78515625 C23.4692757 112.24559203 17.58985868 122.67250943 11.23828125 132.8125 C9.83579319 134.87113776 9.83579319 134.87113776 10 137 C13.96 138.98 13.96 138.98 18 141 C21.6388891 137.53378226 24.55524085 134.02105735 27.4375 129.875 C28.31368967 128.6266102 29.19137866 127.37927178 30.0703125 126.1328125 C30.53985352 125.46668945 31.00939453 124.80056641 31.49316406 124.11425781 C34.2181286 120.29083058 37.01910128 116.52355213 39.8125 112.75 C54.0009014 93.78293193 54.0009014 93.78293193 67 74 C70.33807728 77.97353694 73.05181904 82.14892621 75.75 86.5625 C82.57183343 98.40985631 82.57183343 98.40985631 91 109 C92.08977619 110.81725211 93.14774947 112.65366953 94.1875 114.5 C96.89019457 119.18540903 99.75632201 123.62200432 102.8984375 128.01953125 C105.76076715 132.07893185 108.54167763 136.19026806 111.3125 140.3125 C111.84061279 141.08996582 112.36872559 141.86743164 112.9128418 142.66845703 C113.41211182 143.41337402 113.91138184 144.15829102 114.42578125 144.92578125 C114.87348877 145.59005127 115.32119629 146.25432129 115.7824707 146.9387207 C117 149 117 149 119 154 C113.39 154 107.78 154 102 154 C102 158.63845119 103.54967348 161.3028771 105.6875 165.25 C118.6135429 190.27312684 119.7892414 217.531788 111.84814453 244.39941406 C107.20014524 258.65113785 99.48886971 270.52848037 90 282 C89.24976563 282.93328125 88.49953125 283.8665625 87.7265625 284.828125 C69.04022981 306.91828781 40.29155941 319.57833127 12 323 C6.95485682 323.29126458 1.92770084 323.33460634 -3.125 323.3125 C-3.80630981 323.31001251 -4.48761963 323.30752502 -5.1895752 323.30496216 C-33.81756334 323.14362696 -60.16535321 315.15319894 -82 296 C-82.75539062 295.37609375 -83.51078125 294.7521875 -84.2890625 294.109375 C-105.27286777 276.37048807 -117.99717421 249.4601214 -120.60327148 222.30932617 C-123.43612132 184.88148598 -109.14235243 153.29323237 -85.73046875 125.09375 C-83.46927964 122.3578643 -81.23953078 119.59724775 -79.00952148 116.8359375 C-74.51172553 111.26794156 -69.96474041 105.75210625 -65.3125 100.3125 C-59.20807792 93.16713439 -53.21623967 85.82435951 -48 78 C-47.34 78 -46.68 78 -46 78 C-45.64615234 77.195625 -45.64615234 77.195625 -45.28515625 76.375 C-43.64065586 73.33592329 -41.56747121 70.70581348 -39.4375 68 C-38.52700009 66.82578723 -37.61685059 65.65130267 -36.70703125 64.4765625 C-35.06367161 62.36309186 -33.41474452 60.25438657 -31.76171875 58.1484375 C-18.21403412 40.56369146 -6.81720693 21.2143852 0 0 Z " fill="#4A5D1D" transform="translate(124,6)"/>
<path d="M0 0 C0.495 0.99 0.495 0.99 1 2 C0.03114628 3.68496298 -0.96986723 5.35178756 -2 7 C-2 7.66 -2 8.32 -2 9 C2.455 11.475 2.455 11.475 7 14 C5.68 15.98 4.36 17.96 3 20 C3.64324219 19.9278125 4.28648437 19.855625 4.94921875 19.78125 C12.31967507 19.02422738 19.59465929 18.89404123 27 19 C27.64939736 21.37407592 28.29460053 23.7491639 28.9375 26.125 C29.21110352 27.12273437 29.21110352 27.12273437 29.49023438 28.140625 C36.2214653 53.10737242 32.50028939 81.38739073 20 104 C17.2863397 108.55384586 14.23212474 112.79707521 11 117 C10.44828125 117.73605469 9.8965625 118.47210938 9.328125 119.23046875 C-1.13561635 132.20654404 -18.4305902 142.96772985 -35 145 C-38.54249839 145.23501663 -42.07527079 145.33305572 -45.625 145.375 C-46.49584229 145.38909912 -47.36668457 145.40319824 -48.26391602 145.41772461 C-63.15005748 145.30677026 -75.69405135 138.4124538 -86.13671875 128.11328125 C-94.61454777 119.22674538 -99.60122258 108.7114499 -103 97 C-103.36480469 95.80117187 -103.72960937 94.60234375 -104.10546875 93.3671875 C-109.25246298 72.15517874 -104.12430253 49.29896737 -93 31 C-90.55564751 27.42821361 -87.92674505 24.18498726 -85 21 C-84.36320312 20.29488281 -83.72640625 19.58976562 -83.0703125 18.86328125 C-64.016742 -1.22331415 -26.15531619 -14.05207183 0 0 Z " fill="#779522" transform="translate(136,134)"/>
<path d="M0 0 C3.33807728 3.97353694 6.05181904 8.14892621 8.75 12.5625 C15.57183343 24.40985631 15.57183343 24.40985631 24 35 C25.08977619 36.81725211 26.14774947 38.65366953 27.1875 40.5 C29.89019457 45.18540903 32.75632201 49.62200432 35.8984375 54.01953125 C38.76076715 58.07893185 41.54167763 62.19026806 44.3125 66.3125 C44.84061279 67.08996582 45.36872559 67.86743164 45.9128418 68.66845703 C46.41211182 69.41337402 46.91138184 70.15829102 47.42578125 70.92578125 C47.87348877 71.59005127 48.32119629 72.25432129 48.7824707 72.9387207 C50 75 50 75 52 80 C46.39 80 40.78 80 35 80 C35 84.63845119 36.54967348 87.3028771 38.6875 91.25 C51.6135429 116.27312684 52.7892414 143.531788 44.84814453 170.39941406 C40.20014524 184.65113785 32.48886971 196.52848037 23 208 C22.24976563 208.93328125 21.49953125 209.8665625 20.7265625 210.828125 C2.04022981 232.91828781 -26.70844059 245.57833127 -55 249 C-60.04514318 249.29126458 -65.07229916 249.33460634 -70.125 249.3125 C-70.80630981 249.31001251 -71.48761963 249.30752502 -72.1895752 249.30496216 C-100.81756334 249.14362696 -127.16535321 241.15319894 -149 222 C-149.75539062 221.37609375 -150.51078125 220.7521875 -151.2890625 220.109375 C-172.52199219 202.15988804 -184.93271449 175.22884317 -187.60986328 147.84790039 C-188.14298619 141.14349701 -187.88697142 134.67625785 -187 128 C-186.67 128 -186.34 128 -186 128 C-185.34 136.91 -184.68 145.82 -184 155 C-184 152.65811526 -184.11118336 150.33176184 -184.21875 147.9921875 C-184.26386719 147.00605469 -184.30898437 146.01992187 -184.35546875 145.00390625 C-184.40316406 143.97136719 -184.45085937 142.93882812 -184.5 141.875 C-184.54769531 140.83472656 -184.59539062 139.79445312 -184.64453125 138.72265625 C-184.76261555 136.14841861 -184.88112262 133.57420112 -185 131 C-184.34 130.67 -183.68 130.34 -183 130 C-180.91320353 135.23733598 -179.49374388 140.12977694 -178.4375 145.6875 C-175.12954994 160.96421481 -167.88293909 175.74178715 -157 187 C-156.23171875 187.8559375 -155.4634375 188.711875 -154.671875 189.59375 C-144.70991542 200.26268736 -127.85263883 211.82919624 -112.89819336 213.30639648 C-79.45307438 213.96044095 -51.57049644 207.42844714 -26.7421875 183.640625 C-25.83726562 182.76921875 -24.93234375 181.8978125 -24 181 C-23.28070313 180.35546875 -22.56140625 179.7109375 -21.8203125 179.046875 C-5.88894892 164.33115763 3.56658171 141.59332612 9 121 C9.28230469 119.98808594 9.56460938 118.97617188 9.85546875 117.93359375 C17.81998178 86.92455065 21.49185767 39.89949832 4.7109375 10.76171875 C4.27007812 10.07722656 3.82921875 9.39273438 3.375 8.6875 C2.92898437 7.99011719 2.48296875 7.29273437 2.0234375 6.57421875 C1.51683594 5.79498047 1.51683594 5.79498047 1 5 C-2.93808897 8.60755393 -5.86235618 12.79335574 -8.9375 17.125 C-10.09759461 18.74483581 -11.2577527 20.36462617 -12.41796875 21.984375 C-13.01013184 22.81388672 -13.60229492 23.64339844 -14.21240234 24.49804688 C-17.0468877 28.46524244 -19.89696357 32.42113251 -22.75 36.375 C-23.5546167 37.49068359 -23.5546167 37.49068359 -24.37548828 38.62890625 C-28.84230791 44.80972211 -33.39021718 50.92509241 -38 57 C-38 53.01196628 -36.10098359 51.01084102 -33.8125 47.9375 C-33.14516846 47.02254761 -33.14516846 47.02254761 -32.46435547 46.08911133 C-31.49376553 44.7585929 -30.52032865 43.43014781 -29.54443359 42.10351562 C-26.88389082 38.47986141 -24.25621266 34.83247675 -21.625 31.1875 C-21.08286865 30.43758789 -20.5407373 29.68767578 -19.98217773 28.91503906 C-16.08802331 23.52357508 -12.21876752 18.11500378 -8.375 12.6875 C-7.62984131 11.63888794 -7.62984131 11.63888794 -6.86962891 10.5690918 C-4.43395145 7.11988548 -2.11092477 3.66224196 0 0 Z " fill="#2C3517" transform="translate(191,80)"/>
<path d="M0 0 C2.4006553 2.8452211 4.61804534 5.78284972 6.6875 8.875 C7.10386719 9.49117187 7.52023438 10.10734375 7.94921875 10.7421875 C9.36256516 13.77904335 9.57701285 16.68197788 10 20 C10.45831261 21.95030866 10.91770681 23.90055596 11.40917969 25.84277344 C21.24014569 64.82137246 17.3622735 108.67565512 0 145 C-0.3290332 145.68852051 -0.65806641 146.37704102 -0.99707031 147.08642578 C-10.79132502 167.19736055 -25.74986021 184.44112611 -45 196 C-45.94649414 196.57572754 -45.94649414 196.57572754 -46.91210938 197.16308594 C-57.77606275 203.67195596 -68.63466107 207.39801572 -81 210 C-81.7739209 210.17668213 -82.5478418 210.35336426 -83.34521484 210.53540039 C-98.67081717 213.21745127 -117.49840576 212.99562496 -131 205 C-131.97598145 204.46125244 -131.97598145 204.46125244 -132.97167969 203.91162109 C-142.7332932 198.52282601 -150.55011255 192.30220508 -158 184 C-157.34 183.67 -156.68 183.34 -156 183 C-152.78710992 184.23046854 -149.73062238 185.63347111 -146.65625 187.17578125 C-133.06802205 193.78571743 -120.63672234 195.38034063 -105.75 195.4375 C-105.06322174 195.4436734 -104.37644348 195.4498468 -103.66885376 195.45620728 C-85.25621844 195.56246411 -70.04226955 190.83679937 -55.98828125 178.6015625 C-54 177 -54 177 -51 176 C-50.30407441 174.68170193 -49.64146874 173.34563743 -49 172 C-47.82319364 170.67954591 -46.61083608 169.39037797 -45.375 168.125 C-37.13752473 159.00547203 -31.66390369 147.65669003 -28 136 C-27.80390137 135.37770508 -27.60780273 134.75541016 -27.40576172 134.11425781 C-21.04730978 113.01646715 -23.19850352 91.15659388 -28 70 C-40.375 70.99 -40.375 70.99 -53 72 C-41.42105263 53.47368421 -41.42105263 53.47368421 -37 52 C-35.44048405 50.05211039 -34.02590789 48.12001319 -32.625 46.0625 C-31.73254082 44.78201508 -30.83927107 43.50209483 -29.9453125 42.22265625 C-29.4699707 41.5383252 -28.99462891 40.85399414 -28.50488281 40.14892578 C-25.88031088 36.40111881 -23.18633907 32.70364623 -20.5 29 C-16.46834788 23.42441175 -12.44245643 17.84480277 -8.4375 12.25 C-7.67308594 11.18265625 -6.90867188 10.1153125 -6.12109375 9.015625 C-4.02874295 6.04086475 -2.00356498 3.03487847 0 0 Z " fill="#7C9921" transform="translate(191,83)"/>
<path d="M0 0 C3.33807728 3.97353694 6.05181904 8.14892621 8.75 12.5625 C15.57183343 24.40985631 15.57183343 24.40985631 24 35 C25.08977619 36.81725211 26.14774947 38.65366953 27.1875 40.5 C29.40530211 44.34813713 31.66857026 48.07349837 34.25 51.6875 C37.59178274 56.37825926 40.82155413 61.1350638 44 65.9375 C44.50563477 66.68410889 45.01126953 67.43071777 45.53222656 68.19995117 C46.22783691 69.259198 46.22783691 69.259198 46.9375 70.33984375 C47.35902344 70.97269287 47.78054687 71.60554199 48.21484375 72.25756836 C49 74 49 74 48 77 C39.585 77.495 39.585 77.495 31 78 C33.04092944 82.7922686 33.04092944 82.7922686 35.19384766 87.53417969 C36.21872603 90.66902874 36.10003604 93.16428329 35.8984375 96.453125 C35.82270508 97.70399902 35.74697266 98.95487305 35.66894531 100.24365234 C35.57269873 101.57922774 35.47468287 102.91467668 35.375 104.25 C35.32710327 104.92573059 35.27920654 105.60146118 35.2298584 106.29766846 C32.75643329 140.47821214 19.01445106 171.22200384 -7 194 C-23.6797763 207.81441658 -47.21990838 218.43239115 -69.09375 218.23046875 C-70.34109924 218.22978142 -70.34109924 218.22978142 -71.61364746 218.2290802 C-73.35816896 218.22608179 -75.10268837 218.2182688 -76.84716797 218.20581055 C-79.49326237 218.1875465 -82.13900529 218.18530145 -84.78515625 218.18554688 C-86.49219048 218.18063021 -88.19922237 218.17480124 -89.90625 218.16796875 C-90.68464233 218.16685593 -91.46303467 218.1657431 -92.26501465 218.16459656 C-106.96022803 218.03977197 -106.96022803 218.03977197 -110 215 C-107.25907888 214.22989341 -104.81596386 213.87949037 -101.97265625 213.859375 C-71.05970434 213.24423945 -46.19165599 202.3697428 -24 181 C-23.28070313 180.35546875 -22.56140625 179.7109375 -21.8203125 179.046875 C-5.88894892 164.33115763 3.56658171 141.59332612 9 121 C9.42345703 119.48212891 9.42345703 119.48212891 9.85546875 117.93359375 C17.81998178 86.92455065 21.49185767 39.89949832 4.7109375 10.76171875 C4.27007812 10.07722656 3.82921875 9.39273438 3.375 8.6875 C2.92898437 7.99011719 2.48296875 7.29273437 2.0234375 6.57421875 C1.51683594 5.79498047 1.51683594 5.79498047 1 5 C-2.93808897 8.60755393 -5.86235618 12.79335574 -8.9375 17.125 C-10.09759461 18.74483581 -11.2577527 20.36462617 -12.41796875 21.984375 C-13.01013184 22.81388672 -13.60229492 23.64339844 -14.21240234 24.49804688 C-17.0468877 28.46524244 -19.89696357 32.42113251 -22.75 36.375 C-23.5546167 37.49068359 -23.5546167 37.49068359 -24.37548828 38.62890625 C-28.84230791 44.80972211 -33.39021718 50.92509241 -38 57 C-38 53.01196628 -36.10098359 51.01084102 -33.8125 47.9375 C-33.14516846 47.02254761 -33.14516846 47.02254761 -32.46435547 46.08911133 C-31.49376553 44.7585929 -30.52032865 43.43014781 -29.54443359 42.10351562 C-26.88389082 38.47986141 -24.25621266 34.83247675 -21.625 31.1875 C-20.81180298 30.06263184 -20.81180298 30.06263184 -19.98217773 28.91503906 C-16.08802331 23.52357508 -12.21876752 18.11500378 -8.375 12.6875 C-7.87822754 11.98842529 -7.38145508 11.28935059 -6.86962891 10.5690918 C-4.43395145 7.11988548 -2.11092477 3.66224196 0 0 Z " fill="#4D611E" transform="translate(191,80)"/>
<path d="M0 0 C0.495 0.99 0.495 0.99 1 2 C0.03114628 3.68496298 -0.96986723 5.35178756 -2 7 C-2 7.66 -2 8.32 -2 9 C2.455 11.475 2.455 11.475 7 14 C5.68 15.98 4.36 17.96 3 20 C3.64324219 19.9278125 4.28648437 19.855625 4.94921875 19.78125 C12.31967507 19.02422738 19.59465929 18.89404123 27 19 C27.64939736 21.37407592 28.29460053 23.7491639 28.9375 26.125 C29.21110352 27.12273437 29.21110352 27.12273437 29.49023438 28.140625 C36.2214653 53.10737242 32.50028939 81.38739073 20 104 C17.2863397 108.55384586 14.23212474 112.79707521 11 117 C10.44828125 117.73605469 9.8965625 118.47210938 9.328125 119.23046875 C-1.13561635 132.20654404 -18.4305902 142.96772985 -35 145 C-38.54249839 145.23501663 -42.07527079 145.33305572 -45.625 145.375 C-46.49584229 145.38909912 -47.36668457 145.40319824 -48.26391602 145.41772461 C-63.15005748 145.30677026 -75.69405135 138.4124538 -86.13671875 128.11328125 C-94.61454777 119.22674538 -99.60122258 108.7114499 -103 97 C-103.36480469 95.80117187 -103.72960937 94.60234375 -104.10546875 93.3671875 C-109.25246298 72.15517874 -104.12430253 49.29896737 -93 31 C-90.55564751 27.42821361 -87.92674505 24.18498726 -85 21 C-84.36320312 20.29488281 -83.72640625 19.58976562 -83.0703125 18.86328125 C-64.016742 -1.22331415 -26.15531619 -14.05207183 0 0 Z M-72 22 C-72.73476562 22.65484375 -73.46953125 23.3096875 -74.2265625 23.984375 C-79.94487637 29.37756735 -84.12608603 35.18191141 -88 42 C-88.474375 42.825 -88.94875 43.65 -89.4375 44.5 C-98.35482842 61.06075279 -97.88692671 80.22169768 -93 98 C-88.97385825 111.34591431 -79.7224234 123.37848447 -67.625 130.375 C-54.41449124 136.98025438 -41.7017795 137.80447202 -27.74047852 133.19018555 C-8.28708181 126.2726377 5.36571951 111.26370091 14.31762695 93.08374023 C23.12312376 74.2829362 26.14170627 48.87096511 19 29 C18.67 28.67 18.34 28.34 18 28 C16.29436596 28.04197902 14.59047767 28.15822723 12.890625 28.3046875 C11.30109009 28.43738037 11.30109009 28.43738037 9.67944336 28.57275391 C8.54772705 28.67249512 7.41601074 28.77223633 6.25 28.875 C3.96485308 29.06781889 1.6796969 29.26052822 -0.60546875 29.453125 C-1.70810059 29.54787109 -2.81073242 29.64261719 -3.94677734 29.74023438 C-7.65069504 30.05536059 -11.35580015 30.34462671 -15.0625 30.625 C-16.04347656 30.69976562 -17.02445312 30.77453125 -18.03515625 30.8515625 C-19.00775391 30.92503906 -19.00775391 30.92503906 -20 31 C-19.65219482 30.5467334 -19.30438965 30.0934668 -18.94604492 29.62646484 C-17.35469037 27.5465435 -15.77106886 25.46085425 -14.1875 23.375 C-13.64029297 22.66214844 -13.09308594 21.94929688 -12.52929688 21.21484375 C-9.56027546 17.29213667 -7.0294387 13.514611 -5 9 C-28.05158362 0.85510712 -53.61836482 5.46455525 -72 22 Z " fill="#E0EE61" transform="translate(136,134)"/>
<path d="M0 0 C6.40265946 19.20797837 -6.33673885 49.59748419 -15 67 C-24.11943209 84.32692097 -36.32862647 99.26924801 -52 111 C-78.75062767 131.44628768 -97.576216 153.15806792 -106.47998047 186.09960938 C-107.21025284 188.76836063 -108.00857069 191.41514209 -108.8125 194.0625 C-109.04582031 194.83722656 -109.27914062 195.61195313 -109.51953125 196.41015625 C-109.67808594 196.93480469 -109.83664063 197.45945313 -110 198 C-115.02742076 189.51283526 -113.44836499 173.69915591 -111.43310547 164.37792969 C-109.89967725 159.55143571 -107.59209045 155.33504782 -105 151 C-104.11441406 149.38931641 -104.11441406 149.38931641 -103.2109375 147.74609375 C-95.65075167 134.63640981 -85.76614244 122.78257256 -75.828125 111.41796875 C-74.03580143 109.04735274 -73.67453659 107.78808458 -73 105 C-71.390625 103.01953125 -71.390625 103.01953125 -69.25 100.8125 C-62.0206769 93.03690972 -55.50206233 84.48597397 -49.44873047 75.76513672 C-48.97064941 75.1826416 -48.49256836 74.60014648 -48 74 C-47.34 74 -46.68 74 -46 74 C-45.64615234 73.195625 -45.64615234 73.195625 -45.28515625 72.375 C-43.64067131 69.33595184 -41.56760473 66.7056888 -39.4375 64 C-38.52824107 62.82843903 -37.61939504 61.6565575 -36.7109375 60.484375 C-35.80751608 59.3227421 -34.90387991 58.16127618 -34 57 C-28.13989893 49.46846117 -22.79482706 41.77409681 -17.71704102 33.69824219 C-17.0565979 32.65458496 -17.0565979 32.65458496 -16.3828125 31.58984375 C-15.80104248 30.65966431 -15.80104248 30.65966431 -15.20751953 29.71069336 C-14 28 -14 28 -12.47216797 26.50878906 C-10.85464248 24.85102663 -10.03691836 23.36395569 -9.0625 21.26953125 C-8.72476563 20.54830078 -8.38703125 19.82707031 -8.0390625 19.08398438 C-7.69617188 18.33439453 -7.35328125 17.58480469 -7 16.8125 C-6.65710938 16.08224609 -6.31421875 15.35199219 -5.9609375 14.59960938 C-3.73659155 9.80707774 -1.80010878 4.96717515 0 0 Z " fill="#7D9922" transform="translate(124,10)"/>
<path d="M0 0 C0.70108887 -0.0021904 1.40217773 -0.0043808 2.12451172 -0.00663757 C4.44139814 -0.00894886 6.75701357 0.01730186 9.07373047 0.04418945 C10.68130083 0.04911204 12.28887691 0.05241178 13.89645386 0.05415344 C17.26416342 0.06179469 20.63144816 0.08236159 23.99902344 0.11328125 C28.32482747 0.15291985 32.65035531 0.17089955 36.97632027 0.18059063 C41.0921614 0.19054323 45.20793441 0.21044797 49.32373047 0.23168945 C50.50878363 0.23678308 50.50878363 0.23678308 51.71777725 0.2419796 C53.94214329 0.25350473 56.16633026 0.27201604 58.390625 0.29296875 C59.65842804 0.30281296 60.92623108 0.31265717 62.23245239 0.32279968 C65.06591797 0.4699707 65.06591797 0.4699707 66.06591797 1.4699707 C66.16501099 3.80157125 66.19562301 6.13627012 66.19091797 8.4699707 C66.19478516 10.3880957 66.19478516 10.3880957 66.19873047 12.3449707 C66.06591797 15.4699707 66.06591797 15.4699707 65.06591797 16.4699707 C62.80684979 16.57492193 60.54445385 16.60854458 58.28295898 16.61523438 C57.57401489 16.61859299 56.8650708 16.6219516 56.13464355 16.62541199 C53.77968619 16.63494887 51.42479972 16.63686647 49.06982422 16.63793945 C47.43936635 16.64115015 45.80890878 16.64451408 44.17845154 16.64802551 C40.75608655 16.65402365 37.33374683 16.65586471 33.91137695 16.65527344 C29.51832564 16.65517178 25.12543583 16.66882463 20.73242283 16.68604565 C17.3636144 16.69714494 13.99484527 16.69919329 10.62602043 16.69866371 C9.00604635 16.69984694 7.38607136 16.70428777 5.76611519 16.71199608 C3.50338442 16.72175437 1.24100751 16.71893463 -1.02172852 16.71289062 C-2.31110825 16.71431564 -3.60048798 16.71574066 -4.92893982 16.71720886 C-7.93408203 16.4699707 -7.93408203 16.4699707 -9.93408203 14.4699707 C-10.23486328 12.2277832 -10.23486328 12.2277832 -10.24658203 9.5949707 C-10.26333984 8.73129883 -10.28009766 7.86762695 -10.29736328 6.9777832 C-9.36298283 0.52754395 -5.98040042 -0.02763718 0 0 Z " fill="#CAE043" transform="translate(66.93408203125,210.530029296875)"/>
<path d="M0 0 C1.61882584 0.00666183 1.61882584 0.00666183 3.27035522 0.01345825 C5.10202744 0.01368484 5.10202744 0.01368484 6.97070312 0.01391602 C8.30805625 0.02413001 9.64540772 0.03456201 10.98275757 0.04519653 C12.34753208 0.04892623 13.71230926 0.05177341 15.0770874 0.05377197 C18.6709023 0.0614119 22.2645558 0.08106331 25.85830688 0.10317993 C29.52476823 0.12363072 33.19125564 0.13277204 36.85775757 0.14285278 C44.05314369 0.164309 51.24839677 0.19844911 58.44369507 0.24050903 C58.52448148 2.36489243 58.58278648 4.49014133 58.63119507 6.61550903 C58.6834021 8.3905481 58.6834021 8.3905481 58.73666382 10.20144653 C58.63998413 11.20433716 58.54330444 12.20722778 58.44369507 13.24050903 C55.00443974 15.53334592 53.74891135 15.48898101 49.70297241 15.48342896 C48.52520233 15.48650558 47.34743225 15.48958221 46.13397217 15.49275208 C44.8620401 15.48556656 43.59010803 15.47838104 42.27963257 15.47097778 C40.97668243 15.47051956 39.6737323 15.47006134 38.33129883 15.46958923 C35.57574117 15.46802603 32.82031373 15.4597472 30.06478882 15.44631958 C26.52593178 15.42929653 22.98721739 15.42550627 19.4483242 15.42626476 C16.0795744 15.42592821 12.7108718 15.41709592 9.34213257 15.40847778 C8.06615204 15.40736496 6.79017151 15.40625214 5.4755249 15.40510559 C4.30405914 15.39872574 3.13259338 15.39234589 1.92562866 15.38577271 C0.88876923 15.38196091 -0.14809021 15.37814911 -1.21636963 15.3742218 C-3.55630493 15.24050903 -3.55630493 15.24050903 -4.55630493 14.24050903 C-4.68145421 12.26431456 -4.73203253 10.2831273 -4.74380493 8.30300903 C-4.75798462 7.2214856 -4.77216431 6.13996216 -4.78677368 5.02566528 C-4.48094775 1.32983667 -3.72831649 0.35077732 0 0 Z " fill="#E0F159" transform="translate(62.556304931640625,187.75949096679688)"/>
<path d="M0 0 C1.58669495 -0.00472824 1.58669495 -0.00472824 3.20544434 -0.009552 C4.93196228 -0.00651566 4.93196228 -0.00651566 6.69335938 -0.00341797 C8.45226501 -0.00485306 8.45226501 -0.00485306 10.2467041 -0.00631714 C12.73169 -0.00699917 15.21667766 -0.00514331 17.70166016 -0.00097656 C21.52054825 0.00437134 25.33931872 -0.00092083 29.15820312 -0.00732422 C31.56575547 -0.00666344 33.97330774 -0.00538229 36.38085938 -0.00341797 C38.10737732 -0.00645432 38.10737732 -0.00645432 39.86877441 -0.009552 C40.92657104 -0.00639984 41.98436768 -0.00324768 43.07421875 0 C44.47867249 0.00119339 44.47867249 0.00119339 45.91149902 0.00241089 C48.03710938 0.12939453 48.03710938 0.12939453 49.03710938 1.12939453 C49.13584754 3.12739025 49.16682737 5.12896611 49.16210938 7.12939453 C49.16597656 8.76908203 49.16597656 8.76908203 49.16992188 10.44189453 C49.03710938 13.12939453 49.03710938 13.12939453 48.03710938 14.12939453 C46.38519542 14.22807962 44.7290772 14.2573829 43.07421875 14.25878906 C42.01642212 14.26194122 40.95862549 14.26509338 39.86877441 14.26834106 C38.71776245 14.26631683 37.56675049 14.2642926 36.38085938 14.26220703 C34.62195374 14.26364212 34.62195374 14.26364212 32.82751465 14.2651062 C30.34252875 14.26578823 27.85754109 14.26393237 25.37255859 14.25976562 C21.5536705 14.25441772 17.73490003 14.25970989 13.91601562 14.26611328 C11.50846328 14.2654525 9.10091101 14.26417135 6.69335938 14.26220703 C4.96684143 14.26524338 4.96684143 14.26524338 3.20544434 14.26834106 C2.14764771 14.2651889 1.08985107 14.26203674 0 14.25878906 C-1.40445374 14.25759567 -1.40445374 14.25759567 -2.83728027 14.25637817 C-4.96289062 14.12939453 -4.96289062 14.12939453 -5.96289062 13.12939453 C-6.06162879 11.13139881 -6.09260862 9.12982295 -6.08789062 7.12939453 C-6.09046875 6.03626953 -6.09304687 4.94314453 -6.09570312 3.81689453 C-5.86967165 -0.75691875 -4.10781718 0.00349049 0 0 Z " fill="#C0D83B" transform="translate(63.962890625,234.87060546875)"/>
<path d="M0 0 C0.99 0.33 1.98 0.66 3 1 C2.98839844 2.14339844 2.97679687 3.28679687 2.96484375 4.46484375 C2.95546712 5.95572754 2.94636679 7.44661309 2.9375 8.9375 C2.92912109 9.69224609 2.92074219 10.44699219 2.91210938 11.22460938 C2.90347559 13.14994313 2.94775667 15.07535581 3 17 C3.33 17.33 3.66 17.66 4 18 C4.04063832 19.66617115 4.042721 21.33388095 4 23 C4.66 23.33 5.32 23.66 6 24 C5.67 24.99 5.34 25.98 5 27 C5.66 27.33 6.32 27.66 7 28 C7 29.98 7 31.96 7 34 C7.66 34 8.32 34 9 34 C9.45375 35.11375 9.9075 36.2275 10.375 37.375 C11.72465986 40.96199008 11.72465986 40.96199008 14 43 C14 43.99 14 44.98 14 46 C14.66 46 15.32 46 16 46 C16.04898438 44.95199219 16.09796875 43.90398437 16.1484375 42.82421875 C16.22348143 41.44528646 16.29902857 40.0663815 16.375 38.6875 C16.4059375 37.99720703 16.436875 37.30691406 16.46875 36.59570312 C16.68124919 32.93009211 16.91933861 31.12099208 19 28 C21.19444275 27.61904907 21.19444275 27.61904907 23.95288086 27.61181641 C24.98412582 27.60235992 26.01537079 27.59290344 27.0778656 27.5831604 C28.75441978 27.59226944 28.75441978 27.59226944 30.46484375 27.6015625 C31.60909317 27.59869232 32.75334259 27.59582214 33.93226624 27.59286499 C36.35580947 27.59082051 38.77936905 27.59637703 41.20288086 27.60888672 C44.91883185 27.62491945 48.63369263 27.60905764 52.34960938 27.58984375 C54.70052324 27.5918264 57.05143643 27.59567053 59.40234375 27.6015625 C60.51802231 27.59548981 61.63370087 27.58941711 62.78318787 27.5831604 C63.81758499 27.59261688 64.85198212 27.60207336 65.91772461 27.61181641 C67.28434486 27.61539658 67.28434486 27.61539658 68.67857361 27.61904907 C71 28 71 28 72.7971344 29.30307007 C74.79773554 32.12539698 74.34992571 35.30246998 74.25 38.625 C74.24484375 39.31851563 74.2396875 40.01203125 74.234375 40.7265625 C74.15438988 45.84561012 74.15438988 45.84561012 73 47 C71.34355634 47.12290718 69.68201007 47.17783908 68.02124023 47.20532227 C66.96021591 47.22526749 65.89919159 47.24521271 64.80601501 47.26576233 C63.651866 47.28247482 62.49771698 47.29918732 61.30859375 47.31640625 C59.5461306 47.3475779 59.5461306 47.3475779 57.74806213 47.37937927 C53.97793676 47.44500124 50.20773918 47.5038183 46.4375 47.5625 C43.88866427 47.6056732 41.33983597 47.64928708 38.79101562 47.69335938 C32.52742108 47.80069545 26.26375399 47.9024379 20 48 C21.60811666 52.48528924 23.10563869 54.18445607 27.125 56.8125 C28.03507812 57.41707031 28.94515625 58.02164063 29.8828125 58.64453125 C30.58148438 59.09183594 31.28015625 59.53914063 32 60 C31.01 60.495 31.01 60.495 30 61 C15.77059522 52.42199002 6.57969039 41.02891637 2 25 C0.0267594 16.65857381 -0.24803603 8.54346319 0 0 Z M18 32 C17.90126184 33.99799572 17.87028201 35.99957158 17.875 38 C17.87242188 39.093125 17.86984375 40.18625 17.8671875 41.3125 C17.69452245 43.91830354 17.69452245 43.91830354 19 45 C20.65191396 45.09868509 22.30803217 45.12798837 23.96289062 45.12939453 C25.02068726 45.13254669 26.07848389 45.13569885 27.16833496 45.13894653 C28.31934692 45.1369223 29.47035889 45.13489807 30.65625 45.1328125 C31.82885376 45.13376923 33.00145752 45.13472595 34.20959473 45.13571167 C36.69458062 45.1363937 39.17956829 45.13453784 41.66455078 45.13037109 C45.48343887 45.12502319 49.30220935 45.13031536 53.12109375 45.13671875 C55.52864609 45.13605797 57.93619837 45.13477682 60.34375 45.1328125 C62.07026794 45.13584885 62.07026794 45.13584885 63.83166504 45.13894653 C65.41835999 45.13421829 65.41835999 45.13421829 67.03710938 45.12939453 C67.97341187 45.12859894 68.90971436 45.12780334 69.87438965 45.12698364 C71.9843306 45.23689643 71.9843306 45.23689643 73 44 C73.09873816 42.00200428 73.12971799 40.00042842 73.125 38 C73.12757812 36.906875 73.13015625 35.81375 73.1328125 34.6875 C73.30547755 32.08169646 73.30547755 32.08169646 72 31 C70.34808604 30.90131491 68.69196783 30.87201163 67.03710938 30.87060547 C65.97931274 30.86745331 64.92151611 30.86430115 63.83166504 30.86105347 C62.68065308 30.8630777 61.52964111 30.86510193 60.34375 30.8671875 C59.17114624 30.86623077 57.99854248 30.86527405 56.79040527 30.86428833 C54.30541938 30.8636063 51.82043171 30.86546216 49.33544922 30.86962891 C45.51656113 30.87497681 41.69779065 30.86968464 37.87890625 30.86328125 C35.47135391 30.86394203 33.06380163 30.86522318 30.65625 30.8671875 C29.50523804 30.86516327 28.35422607 30.86313904 27.16833496 30.86105347 C26.11053833 30.86420563 25.0527417 30.86735779 23.96289062 30.87060547 C23.02658813 30.87140106 22.09028564 30.87219666 21.12561035 30.87301636 C19.0156694 30.76310357 19.0156694 30.76310357 18 32 Z " fill="#627A21" transform="translate(40,204)"/>
<path d="M0 0 C1.88428711 0.0009668 1.88428711 0.0009668 3.80664062 0.00195312 C13.01444929 0.0464831 13.01444929 0.0464831 16.4375 1.1875 C18.58005793 0.79817144 18.58005793 0.79817144 20.4375 0.1875 C20.52 0.93 20.6025 1.6725 20.6875 2.4375 C21.5771946 5.69971354 22.92253749 6.99704878 25.4375 9.1875 C25.1075 9.8475 24.7775 10.5075 24.4375 11.1875 C23.7775 11.1875 23.1175 11.1875 22.4375 11.1875 C22.4375 10.1975 22.4375 9.2075 22.4375 8.1875 C19.31552522 9.4964572 19.31552522 9.4964572 17.4375 12.1875 C16.7775 12.1875 16.1175 12.1875 15.4375 12.1875 C15.1075 13.5075 14.7775 14.8275 14.4375 16.1875 C13.7775 16.1875 13.1175 16.1875 12.4375 16.1875 C12.128125 16.97125 11.81875 17.755 11.5 18.5625 C10.4375 21.1875 10.4375 21.1875 9.4375 23.1875 C8.7775 23.1875 8.1175 23.1875 7.4375 23.1875 C7.4375 23.8475 7.4375 24.5075 7.4375 25.1875 C9.0875 25.5175 10.7375 25.8475 12.4375 26.1875 C12.4375 25.5275 12.4375 24.8675 12.4375 24.1875 C14.35807292 24.22005208 16.27864583 24.25260417 18.19921875 24.28515625 C20.69889628 24.17609528 22.98430391 23.67885653 25.4375 23.1875 C27.78840713 22.94513844 30.1432286 22.73894278 32.5 22.5625 C34.31177734 22.41941406 34.31177734 22.41941406 36.16015625 22.2734375 C41.05184438 22.14516916 41.05184438 22.14516916 43.4375 23.1875 C46.35659917 28.91758356 46.88756831 34.27211828 47.2265625 40.6484375 C47.27845214 43.17909354 47.27845214 43.17909354 48.4375 45.1875 C48.77064264 53.18292337 48.95856493 63.4059026 44.4375 70.1875 C44.45321045 69.28620361 44.4689209 68.38490723 44.48510742 67.45629883 C44.53685359 64.04738378 44.57414485 60.63889808 44.60229492 57.22973633 C44.61719533 55.76645234 44.63752282 54.30321147 44.66381836 52.84008789 C44.83378343 43.12541743 44.14977924 34.59231041 41.4375 25.1875 C40.75349121 25.24284912 40.06948242 25.29819824 39.36474609 25.35522461 C14.24361778 27.38493743 14.24361778 27.38493743 2.4375 28.1875 C7.3225352 20.7737407 12.36834949 13.47581196 17.4375 6.1875 C7.64954667 -0.33780222 -7.34067032 1.52208994 -18.34057617 3.56396484 C-28.79372654 5.84705139 -38.98273606 11.18752004 -47.08203125 18.15625 C-48.5625 19.1875 -48.5625 19.1875 -51.5625 19.1875 C-51.06878906 18.77757812 -50.57507812 18.36765625 -50.06640625 17.9453125 C-49.42574219 17.40648437 -48.78507812 16.86765625 -48.125 16.3125 C-47.48691406 15.77882812 -46.84882812 15.24515625 -46.19140625 14.6953125 C-44.45444996 13.2652243 -44.45444996 13.2652243 -43.5625 11.1875 C-41.67461338 10.20984443 -39.7809404 9.24170849 -37.859375 8.33203125 C-35.58061863 7.1965285 -33.47646211 5.90115539 -31.3125 4.5625 C-21.83262485 -0.67130316 -10.53372383 -0.10561517 0 0 Z " fill="#F6FA96" transform="translate(112.5625,137.8125)"/>
<path d="M0 0 C0.99 0.33 1.98 0.66 3 1 C2.98839844 2.14339844 2.97679687 3.28679687 2.96484375 4.46484375 C2.95546712 5.95572754 2.94636679 7.44661309 2.9375 8.9375 C2.92912109 9.69224609 2.92074219 10.44699219 2.91210938 11.22460938 C2.90347559 13.14994313 2.94775667 15.07535581 3 17 C3.33 17.33 3.66 17.66 4 18 C4.04063832 19.66617115 4.042721 21.33388095 4 23 C4.66 23.33 5.32 23.66 6 24 C5.67 24.99 5.34 25.98 5 27 C5.66 27.33 6.32 27.66 7 28 C7 29.98 7 31.96 7 34 C7.66 34 8.32 34 9 34 C9.45375 35.11375 9.9075 36.2275 10.375 37.375 C11.72465986 40.96199008 11.72465986 40.96199008 14 43 C14 43.99 14 44.98 14 46 C14.66 46 15.32 46 16 46 C16.33 41.05 16.66 36.1 17 31 C17.33 31 17.66 31 18 31 C18.06058594 31.92683594 18.12117188 32.85367188 18.18359375 33.80859375 C18.30927734 35.60490234 18.30927734 35.60490234 18.4375 37.4375 C18.51871094 38.63246094 18.59992187 39.82742187 18.68359375 41.05859375 C18.67656114 43.88570244 18.67656114 43.88570244 20 45 C21.59513893 45.12272849 23.19554932 45.17781043 24.79516602 45.20532227 C25.81614883 45.22526749 26.83713165 45.24521271 27.88905334 45.26576233 C29.55465553 45.29083107 29.55465553 45.29083107 31.25390625 45.31640625 C32.94978127 45.3475779 32.94978127 45.3475779 34.67991638 45.37937927 C38.30737985 45.44499797 41.93491833 45.50381677 45.5625 45.5625 C48.01498186 45.60567351 50.467456 45.6492874 52.91992188 45.69335938 C58.94653427 45.80069184 64.97322201 45.9024349 71 46 C71 46.33 71 46.66 71 47 C45.755 47.495 45.755 47.495 20 48 C22.06489093 53.16222733 22.74641659 53.94958008 27.125 56.8125 C28.03507812 57.41707031 28.94515625 58.02164063 29.8828125 58.64453125 C30.58148438 59.09183594 31.28015625 59.53914063 32 60 C31.01 60.495 31.01 60.495 30 61 C15.77059522 52.42199002 6.57969039 41.02891637 2 25 C0.0267594 16.65857381 -0.24803603 8.54346319 0 0 Z " fill="#344616" transform="translate(40,204)"/>
<path d="M0 0 C1.88428711 0.0009668 1.88428711 0.0009668 3.80664062 0.00195312 C13.01444929 0.0464831 13.01444929 0.0464831 16.4375 1.1875 C18.58005793 0.79817144 18.58005793 0.79817144 20.4375 0.1875 C20.56125 0.97125 20.685 1.755 20.8125 2.5625 C21.22867993 5.32807822 21.22867993 5.32807822 23.4375 7.1875 C21.4575 7.1875 19.4775 7.1875 17.4375 7.1875 C17.4375 6.5275 17.4375 5.8675 17.4375 5.1875 C-2.96602744 0.11680087 -20.64267377 1.73236471 -38.88427734 12.16650391 C-41.80159829 13.94134188 -44.49555822 15.93081783 -47.08203125 18.15625 C-48.5625 19.1875 -48.5625 19.1875 -51.5625 19.1875 C-51.06878906 18.77757812 -50.57507812 18.36765625 -50.06640625 17.9453125 C-49.42574219 17.40648437 -48.78507812 16.86765625 -48.125 16.3125 C-47.48691406 15.77882812 -46.84882812 15.24515625 -46.19140625 14.6953125 C-44.45444996 13.2652243 -44.45444996 13.2652243 -43.5625 11.1875 C-41.67461338 10.20984443 -39.7809404 9.24170849 -37.859375 8.33203125 C-35.58061863 7.1965285 -33.47646211 5.90115539 -31.3125 4.5625 C-21.83262485 -0.67130316 -10.53372383 -0.10561517 0 0 Z " fill="#F3F88B" transform="translate(112.5625,137.8125)"/>
<path d="M0 0 C1.06367294 0.00222061 2.12734589 0.00444122 3.22325134 0.00672913 C5.02500572 0.00684242 5.02500572 0.00684242 6.86315918 0.00695801 C8.17042465 0.01211929 9.47769012 0.01728058 10.8245697 0.02259827 C12.16835477 0.02446253 13.51214052 0.02588639 14.85592651 0.02688599 C18.39873622 0.0307105 21.94150515 0.0405402 25.48429871 0.05158997 C29.09706572 0.06180552 32.7098393 0.06638392 36.32261658 0.07142639 C43.41573225 0.08216254 50.50882019 0.09923816 57.60191345 0.12025452 C57.60191345 0.45025452 57.60191345 0.78025452 57.60191345 1.12025452 C56.88194687 1.12834137 56.16198029 1.13642822 55.42019653 1.14476013 C48.63684084 1.22268476 41.8536633 1.30996899 35.07056713 1.4077816 C31.58325368 1.45773826 28.09597042 1.50406812 24.60850525 1.54212952 C20.59960268 1.58604036 16.59106894 1.64568912 12.5823822 1.70619202 C11.32918686 1.71774323 10.07599152 1.72929443 8.78482056 1.74119568 C7.62384354 1.76106537 6.46286652 1.78093506 5.26670837 1.80140686 C4.24300644 1.81473053 3.2193045 1.8280542 2.1645813 1.84178162 C-0.63802486 1.94685864 -0.63802486 1.94685864 -3.39808655 4.12025452 C-3.39808655 8.08025452 -3.39808655 12.04025452 -3.39808655 16.12025452 C26.30191345 16.61525452 26.30191345 16.61525452 56.60191345 17.12025452 C56.60191345 17.45025452 56.60191345 17.78025452 56.60191345 18.12025452 C36.47191345 18.45025452 16.34191345 18.78025452 -4.39808655 19.12025452 C-6.72755927 14.46130907 -7.01724255 11.22829151 -6.39808655 6.12025452 C-3.55078391 0.17805771 -3.55078391 0.17805771 0 0 Z " fill="#466510" transform="translate(62.39808654785156,185.87974548339844)"/>
<path d="M0 0 C2.52125001 3.28238208 4.81621224 6.69078165 7.125 10.125 C11.28797528 16.21251514 15.90114425 21.66376735 21 27 C21.80630859 27.90105469 21.80630859 27.90105469 22.62890625 28.8203125 C33.7404094 40.79511539 48.32598963 47.46748178 63 54 C57.65420041 55.7819332 52.8631677 52.35576609 48 50 C28.26628883 39.80157529 9.38998646 23.53232956 0 3 C0 2.01 0 1.02 0 0 Z " fill="#1F2410" transform="translate(16,267)"/>
<path d="M0 0 C0.33 0.66 0.66 1.32 1 2 C1.96486328 1.89171875 1.96486328 1.89171875 2.94921875 1.78125 C10.31967507 1.02422738 17.59465929 0.89404123 25 1 C27.51122918 9.40813341 29.75214626 17.1204955 29 26 C28.67 26 28.34 26 28 26 C26.20709879 21.4579836 25.68536864 17.290294 25.28515625 12.48046875 C24.90245188 9.15146496 24.03717798 6.18067914 23 3 C22.09121094 3.09087891 22.09121094 3.09087891 21.1640625 3.18359375 C19.3999319 3.36000681 17.63559214 3.53433566 15.87109375 3.70703125 C14.00746086 3.89719787 12.14524885 4.10207819 10.28515625 4.32421875 C2.20094937 5.26028481 2.20094937 5.26028481 -2 4 C-1.34 2.68 -0.68 1.36 0 0 Z " fill="#F2F794" transform="translate(138,152)"/>
<path d="M0 0 C4.6860003 4.55935164 8.04164673 8.94291641 11.25 14.625 C13.96880211 19.33040073 16.86613875 23.78825469 20.0234375 28.20703125 C22.54572378 31.77113142 24.99922729 35.37807471 27.4375 39 C28.11196167 39.98963745 28.11196167 39.98963745 28.80004883 40.99926758 C32 45.76846736 32 45.76846736 32 48 C31.34 48 30.68 48 30 48 C28.625 46.12109375 28.625 46.12109375 27 43.4375 C24.14196719 38.81612603 21.21257756 34.26258893 18.1875 29.75 C17.76911865 29.12424072 17.3507373 28.49848145 16.91967773 27.85375977 C15.6141637 25.90180452 14.30725154 23.95079197 13 22 C11.18606896 19.29262103 9.37383 16.58411965 7.5625 13.875 C7.14959717 13.25979492 6.73669434 12.64458984 6.3112793 12.01074219 C0 2.57053834 0 2.57053834 0 0 Z " fill="#2B3712" transform="translate(207,106)"/>
<path d="M0 0 C0.33 0 0.66 0 1 0 C1.78040334 17.11684649 0.23080982 33.2660971 -7 49 C-8.29675077 45.10974768 -7.36921999 43.47036454 -6.0625 39.625 C-4.67640671 35.53719945 -3.8668184 32.30881638 -4 28 C-3.67 27.67 -3.34 27.34 -3 27 C-2.78381804 25.1731498 -2.62868754 23.33899638 -2.5 21.50390625 C-2.4175 20.38822266 -2.335 19.27253906 -2.25 18.12304688 C-2.1675 16.94806641 -2.085 15.77308594 -2 14.5625 C-1.83716659 12.25102885 -1.67068425 9.93981094 -1.5 7.62890625 C-1.4278125 6.59838135 -1.355625 5.56785645 -1.28125 4.50610352 C-1 2 -1 2 0 0 Z " fill="#F5FA82" transform="translate(167,180)"/>
<path d="M0 0 C0.99 0.33 1.98 0.66 3 1 C2.98839844 2.14339844 2.97679687 3.28679687 2.96484375 4.46484375 C2.95546712 5.95572754 2.94636679 7.44661309 2.9375 8.9375 C2.92912109 9.69224609 2.92074219 10.44699219 2.91210938 11.22460938 C2.90347559 13.14994313 2.94775667 15.07535581 3 17 C3.33 17.33 3.66 17.66 4 18 C4.04063832 19.66617115 4.042721 21.33388095 4 23 C4.66 23.33 5.32 23.66 6 24 C5.67 24.99 5.34 25.98 5 27 C5.66 27.33 6.32 27.66 7 28 C7.6328125 30.50390625 7.6328125 30.50390625 8.125 33.5625 C8.29257812 34.57441406 8.46015625 35.58632812 8.6328125 36.62890625 C8.75398438 37.41136719 8.87515625 38.19382813 9 39 C2.1779754 33.07202991 0.82669423 21.542507 0 13 C-0.13940361 8.65990081 -0.126003 4.34010342 0 0 Z " fill="#324415" transform="translate(40,204)"/>
<path d="M0 0 C1.43279297 0.32484375 1.43279297 0.32484375 2.89453125 0.65625 C14.4337135 3.18105484 24.38991421 3.8206716 36 1 C35 3 35 3 32.953125 3.8515625 C21.4781422 7.13486683 11.29520923 6.80279589 0 3 C0 2.01 0 1.02 0 0 Z " fill="#415519" transform="translate(74,264)"/>
<path d="M0 0 C-2.68529156 3.48495559 -5.84110119 3.94464813 -10 4.9375 C-16.50905178 6.54873762 -22.74807218 8.55641907 -29 11 C-29 10.34 -29 9.68 -29 9 C-10.73045113 -0.69981203 -10.73045113 -0.69981203 0 0 Z " fill="#F1F48A" transform="translate(98,131)"/>
<path d="M0 0 C3.46675219 4.1293948 6.33945964 8.49978042 9.1875 13.0625 C9.86329102 14.12307617 9.86329102 14.12307617 10.55273438 15.20507812 C10.98263672 15.89150391 11.41253906 16.57792969 11.85546875 17.28515625 C12.24371826 17.90269775 12.63196777 18.52023926 13.03198242 19.15649414 C14.04692496 21.08936454 14.55880076 22.86876336 15 25 C14.01 24.01 13.02 23.02 12 22 C12 24.31 12 26.62 12 29 C10.22836681 26.34255022 9.64745513 25.09635656 9 22.125 C7.85570256 16.91435988 5.97243481 12.70458011 2.9375 8.3125 C0.07174888 4.14349776 0.07174888 4.14349776 -1 2 C-0.67 1.34 -0.34 0.68 0 0 Z " fill="#44541B" transform="translate(191,80)"/>
<path d="M0 0 C2.46800047 1.15173355 4.04783565 2.04783565 6 4 C6.125 6.625 6.125 6.625 6 9 C5.01 9 4.02 9 3 9 C3.2165625 10.09699219 3.433125 11.19398438 3.65625 12.32421875 C3.93774292 13.77859884 4.21897941 15.23302857 4.5 16.6875 C4.64308594 17.40873047 4.78617188 18.12996094 4.93359375 18.87304688 C5.65571887 22.63841359 6.1824976 26.14473813 6 30 C-0.73004131 23.26995869 0.33254257 9.03598443 0 0 Z " fill="#5A6F22" transform="translate(9,202)"/>
<path d="M0 0 C0.66 0.33 1.32 0.66 2 1 C-5.04691435 7.87193453 -12.44299337 13.15394012 -21 18 C-21.825 18.46921875 -22.65 18.9384375 -23.5 19.421875 C-25.625 20.5625 -25.625 20.5625 -29 22 C-29.99 21.67 -30.98 21.34 -32 21 C-30.93523437 20.47792969 -29.87046875 19.95585937 -28.7734375 19.41796875 C-18.35794375 14.18128995 -8.31533733 8.31533733 0 0 Z " fill="#1D230F" transform="translate(202,297)"/>
<path d="M0 0 C27.45038993 -0.87261296 27.45038993 -0.87261296 37 4 C37.495 4.99 37.495 4.99 38 6 C36.35 6 34.7 6 33 6 C33 5.34 33 4.68 33 4 C30.36 4 27.72 4 25 4 C25 3.34 25 2.68 25 2 C16.75 2 8.5 2 0 2 C0 1.34 0 0.68 0 0 Z " fill="#F3F59E" transform="translate(99,130)"/>
<path d="M0 0 C0.99 0.33 1.98 0.66 3 1 C5.14255793 0.61067144 5.14255793 0.61067144 7 0 C7.12375 0.78375 7.2475 1.5675 7.375 2.375 C7.79117993 5.14057822 7.79117993 5.14057822 10 7 C8.02 7 6.04 7 4 7 C4 6.34 4 5.68 4 5 C-0.62 4.01 -5.24 3.02 -10 2 C-6.31884463 -0.45410358 -4.34706402 -0.23287843 0 0 Z " fill="#EDF385" transform="translate(126,138)"/>
<path d="M0 0 C0.99 0.33 1.98 0.66 3 1 C3.33 2.32 3.66 3.64 4 5 C-1.61 5 -7.22 5 -13 5 C-13.33 5.99 -13.66 6.98 -14 8 C-14.99 7.67 -15.98 7.34 -17 7 C-17 5.68 -17 4.36 -17 3 C-13.16275828 2.09586327 -9.62497726 1.89423102 -5.6875 1.9375 C-4.08455078 1.95103516 -4.08455078 1.95103516 -2.44921875 1.96484375 C-1.64097656 1.97644531 -0.83273438 1.98804688 0 2 C0 1.34 0 0.68 0 0 Z " fill="#3B4918" transform="translate(239,155)"/>
<path d="M0 0 C2 2 2 2 2.1875 5 C1.7059628 21.4410558 1.7059628 21.4410558 -2 27 C-1.86095156 23.24971611 -1.71258389 19.49985719 -1.5625 15.75 C-1.50352539 14.15478516 -1.50352539 14.15478516 -1.44335938 12.52734375 C-1.40146484 11.50253906 -1.35957031 10.47773438 -1.31640625 9.421875 C-1.27974854 8.47924805 -1.24309082 7.53662109 -1.20532227 6.56542969 C-1.02060772 4.25748623 -0.64138388 2.21859476 0 0 Z " fill="#F4FB84" transform="translate(159,181)"/>
<path d="M0 0 C0.66 0.99 1.32 1.98 2 3 C1.48291016 4.91015625 1.48291016 4.91015625 0.4140625 7.0625 C0.03024414 7.85785156 -0.35357422 8.65320313 -0.74902344 9.47265625 C-1.1618457 10.30667969 -1.57466797 11.14070313 -2 12 C-2.7666978 13.6649784 -3.52971828 15.33165503 -4.2890625 17 C-5.06656706 18.66719938 -5.84521754 20.33386482 -6.625 22 C-7.21667969 23.28583984 -7.21667969 23.28583984 -7.8203125 24.59765625 C-8.201875 25.41105469 -8.5834375 26.22445312 -8.9765625 27.0625 C-9.31768066 27.79597656 -9.65879883 28.52945313 -10.01025391 29.28515625 C-11 31 -11 31 -13 32 C-11.41015403 26.84329754 -9.29222871 22.02631191 -7.0625 17.125 C-4.4963342 11.47848303 -2.11852021 5.83091141 0 0 Z " fill="#56671E" transform="translate(124,6)"/>
<path d="M0 0 C4.73014134 4.60229969 8.07354007 8.93727479 11.1875 14.75 C11.71730469 15.73484375 12.24710938 16.7196875 12.79296875 17.734375 C13.19128906 18.48203125 13.58960938 19.2296875 14 20 C13.34 20.33 12.68 20.66 12 21 C9.99271052 17.8796258 7.99542891 14.75296965 6 11.625 C5.42765625 10.73554687 4.8553125 9.84609375 4.265625 8.9296875 C3.45351562 7.65351562 3.45351562 7.65351562 2.625 6.3515625 C2.12226563 5.56604004 1.61953125 4.78051758 1.1015625 3.97119141 C0 2 0 2 0 0 Z " fill="#344115" transform="translate(207,106)"/>
<path d="M0 0 C2.52259061 1.97420135 2.9929808 2.96745642 3.6875 6.1875 C3.790625 7.115625 3.89375 8.04375 4 9 C3.01 9.495 3.01 9.495 2 10 C1.31270746 12.11846285 1.31270746 12.11846285 0.875 14.5625 C0.70742187 15.38878906 0.53984375 16.21507813 0.3671875 17.06640625 C0.24601562 17.70449219 0.12484375 18.34257812 0 19 C-0.33 19 -0.66 19 -1 19 C-1.02705308 16.58325776 -1.04686438 14.1668206 -1.0625 11.75 C-1.07087891 11.06808594 -1.07925781 10.38617188 -1.08789062 9.68359375 C-1.10428392 6.30657446 -1.05628768 3.22708361 0 0 Z " fill="#3E4F1C" transform="translate(125,9)"/>
<path d="M0 0 C0.80566406 0.17144531 1.61132812 0.34289062 2.44140625 0.51953125 C4.4375 1.1875 4.4375 1.1875 5.4375 3.1875 C4.65404285 4.35969543 3.86047164 5.52513668 3.0625 6.6875 C2.62164062 7.3371875 2.18078125 7.986875 1.7265625 8.65625 C1.08847656 9.41421875 1.08847656 9.41421875 0.4375 10.1875 C-0.2225 10.1875 -0.8825 10.1875 -1.5625 10.1875 C0.3125 5.4375 0.3125 5.4375 1.4375 3.1875 C0.303125 3.06375 -0.83125 2.94 -2 2.8125 C-3.175625 2.60625 -4.35125 2.4 -5.5625 2.1875 C-5.8925 1.5275 -6.2225 0.8675 -6.5625 0.1875 C-3.9640401 -1.11172995 -2.80288549 -0.62536289 0 0 Z " fill="#8DBA1E" transform="translate(125.5625,140.8125)"/>
<path d="M0 0 C0 3.60456167 -0.88680402 4.6048998 -2.9375 7.5 C-4.76048843 10.0857992 -5.99291644 11.97874931 -7 15 C-5.68 15.33 -4.36 15.66 -3 16 C-5.97 16.33 -8.94 16.66 -12 17 C-8.31121019 11.02564878 -4.68056077 5.24790147 0 0 Z " fill="#607621" transform="translate(150,138)"/>
<path d="M0 0 C0.66 0.33 1.32 0.66 2 1 C-0.17600062 4.26400093 -1.68892079 5.03628636 -5 7 C-6.80362834 8.52452673 -8.57450937 10.08854862 -10.3125 11.6875 C-11.19550781 12.49574219 -12.07851563 13.30398437 -12.98828125 14.13671875 C-13.65214844 14.75160156 -14.31601562 15.36648437 -15 16 C-15 13 -15 13 -13.49609375 11.1328125 C-9.2236535 6.96576452 -4.9681256 3.31208373 0 0 Z " fill="#F6F88A" transform="translate(66,142)"/>
<path d="M0 0 C3.465 1.98 3.465 1.98 7 4 C7 4.66 7 5.32 7 6 C7.66 6 8.32 6 9 6 C9 6.66 9 7.32 9 8 C9.804375 8.12375 10.60875 8.2475 11.4375 8.375 C12.283125 8.58125 13.12875 8.7875 14 9 C14.33 9.66 14.66 10.32 15 11 C14.01 11.33 13.02 11.66 12 12 C9.58984375 10.48828125 9.58984375 10.48828125 6.9375 8.3125 C6.05964844 7.60738281 5.18179688 6.90226562 4.27734375 6.17578125 C2.16337402 4.15608805 1.07213762 2.68337269 0 0 Z " fill="#D2E345" transform="translate(50,260)"/>
<path d="M0 0 C0.97961897 2.93885692 1.03775226 4.05758525 0.66015625 7.01171875 C0.56669922 7.76904297 0.47324219 8.52636719 0.37695312 9.30664062 C0.27318359 10.09232422 0.16941406 10.87800781 0.0625 11.6875 C-0.03740234 12.48478516 -0.13730469 13.28207031 -0.24023438 14.10351562 C-0.48748847 16.06977435 -0.74295637 18.03499706 -1 20 C-1.33 20 -1.66 20 -2 20 C-2.144375 18.906875 -2.28875 17.81375 -2.4375 16.6875 C-2.88288104 13.06877013 -2.88288104 13.06877013 -4 10 C-3.22265625 7.51953125 -3.22265625 7.51953125 -2.0625 4.8125 C-1.68222656 3.91144531 -1.30195312 3.01039062 -0.91015625 2.08203125 C-0.60980469 1.39496094 -0.30945313 0.70789062 0 0 Z " fill="#8DAB26" transform="translate(124,10)"/>
<path d="M0 0 C0.33 0 0.66 0 1 0 C1 4.95 1 9.9 1 15 C1.66 15 2.32 15 3 15 C3.33 13.68 3.66 12.36 4 11 C3.88590407 12.45922693 3.75834456 13.91740598 3.625 15.375 C3.55539062 16.18710938 3.48578125 16.99921875 3.4140625 17.8359375 C3 20 3 20 1 22 C0.18565857 19.14839609 -0.11881242 16.63373869 -0.09765625 13.671875 C-0.09282227 12.47304687 -0.09282227 12.47304687 -0.08789062 11.25 C-0.07951172 10.425 -0.07113281 9.6 -0.0625 8.75 C-0.05798828 7.90953125 -0.05347656 7.0690625 -0.04882812 6.203125 C-0.03707961 4.13538599 -0.01914522 2.06768376 0 0 Z " fill="#91AE25" transform="translate(12,186)"/>
<path d="M0 0 C0.99 0.33 1.98 0.66 3 1 C3.22304441 2.74818591 3.4278645 4.49870323 3.625 6.25 C3.74101562 7.22453125 3.85703125 8.1990625 3.9765625 9.203125 C4 12 4 12 2 16 C1.34 10.72 0.68 5.44 0 0 Z " fill="#89AF21" transform="translate(154,170)"/>
<path d="M0 0 C0.99 0.33 1.98 0.66 3 1 C3 5.95 3 10.9 3 16 C0 13 0 13 -0.29296875 9.86328125 C-0.25816406 8.69152344 -0.22335938 7.51976562 -0.1875 6.3125 C-0.16042969 5.13300781 -0.13335937 3.95351562 -0.10546875 2.73828125 C-0.07066406 1.83464844 -0.03585938 0.93101562 0 0 Z " fill="#415719" transform="translate(40,204)"/>
<path d="M0 0 C0.33 0.66 0.66 1.32 1 2 C-1.04497388 7.172581 -4.29931105 10.9519972 -8 15 C-8 10.91518119 -6.29880669 9.15295347 -4 5.8125 C-3.2575 4.72582031 -2.515 3.63914062 -1.75 2.51953125 C-1.1725 1.68808594 -0.595 0.85664062 0 0 Z " fill="#40501B" transform="translate(105,83)"/>
<path d="M0 0 C3.66172475 0.62678171 6.8818995 1.64451846 10.3125 3.0625 C11.19550781 3.42472656 12.07851562 3.78695313 12.98828125 4.16015625 C13.65214844 4.43730469 14.31601563 4.71445312 15 5 C15 5.33 15 5.66 15 6 C12.03 6 9.06 6 6 6 C6 5.01 6 4.02 6 3 C4.02 2.34 2.04 1.68 0 1 C0 0.67 0 0.34 0 0 Z " fill="#3D4F16" transform="translate(63,273)"/>
<path d="M0 0 C0.33 0.66 0.66 1.32 1 2 C0.51789063 2.54269531 0.03578125 3.08539063 -0.4609375 3.64453125 C-1.09257812 4.35996094 -1.72421875 5.07539063 -2.375 5.8125 C-3.31472656 6.87404297 -3.31472656 6.87404297 -4.2734375 7.95703125 C-6.140599 10.08803819 -6.140599 10.08803819 -8 13 C-8.66 13 -9.32 13 -10 13 C-8.48446596 9.52224821 -6.4226544 7.0442016 -3.875 4.25 C-3.15054688 3.45078125 -2.42609375 2.6515625 -1.6796875 1.828125 C-0.84824219 0.92320312 -0.84824219 0.92320312 0 0 Z " fill="#181E0C" transform="translate(216,282)"/>
<path d="M0 0 C1.98 0.66 3.96 1.32 6 2 C6 2.99 6 3.98 6 5 C5.01 5.99 4.02 6.98 3 8 C2.01 5.36 1.02 2.72 0 0 Z " fill="#E2ED81" transform="translate(136,145)"/>
<path d="M0 0 C3.96 0 7.92 0 12 0 C12 0.33 12 0.66 12 1 C7.46298506 2.45184478 3.81938524 3.23509196 -1 3 C-0.67 2.01 -0.34 1.02 0 0 Z " fill="#90B61F" transform="translate(104,139)"/>
<path d="M0 0 C1.65 0 3.3 0 5 0 C5.66 1.98 6.32 3.96 7 6 C6.01 6 5.02 6 4 6 C4 5.01 4 4.02 4 3 C3.01 2.67 2.02 2.34 1 2 C0.67 1.34 0.34 0.68 0 0 Z " fill="#89AF20" transform="translate(149,162)"/>
<path d="M0 0 C0.268125 0.5775 0.53625 1.155 0.8125 1.75 C2.01719859 4.0325868 3.40798115 5.9737942 5 8 C4.67 8.66 4.34 9.32 4 10 C3.34 10 2.68 10 2 10 C-1.125 3.375 -1.125 3.375 0 0 Z " fill="#CDDC41" transform="translate(38,239)"/>
<path d="M0 0 C4.75 0.875 4.75 0.875 7 2 C7 2.66 7 3.32 7 4 C5.02 4 3.04 4 1 4 C0.67 2.68 0.34 1.36 0 0 Z " fill="#55691D" transform="translate(62,274)"/>
<path d="M0 0 C0.33 0 0.66 0 1 0 C2.28571429 8.42857143 2.28571429 8.42857143 1 13 C0.01 12.67 -0.98 12.34 -2 12 C-1.34 8.04 -0.68 4.08 0 0 Z " fill="#EEF775" transform="translate(165,198)"/>
<path d="M0 0 C0.33 0 0.66 0 1 0 C1 4.62 1 9.24 1 14 C0.01 14.33 -0.98 14.66 -2 15 C-1.67 14.01 -1.34 13.02 -1 12 C-0.77674186 9.94106379 -0.59294241 7.87766347 -0.4375 5.8125 C-0.35371094 4.72582031 -0.26992187 3.63914063 -0.18359375 2.51953125 C-0.12300781 1.68808594 -0.06242187 0.85664063 0 0 Z " fill="#4A6417" transform="translate(113,236)"/>
<path d="M0 0 C0.66 0 1.32 0 2 0 C2 0.99 2 1.98 2 3 C3.32 3.33 4.64 3.66 6 4 C1.545 4.495 1.545 4.495 -3 5 C-1.625 2.5 -1.625 2.5 0 0 Z " fill="#47680D" transform="translate(141,150)"/>
<path d="M0 0 C1.32 0.33 2.64 0.66 4 1 C3.67 1.99 3.34 2.98 3 4 C3.66 4.33 4.32 4.66 5 5 C4.34 5.66 3.68 6.32 3 7 C3 6.34 3 5.68 3 5 C2.34 5 1.68 5 1 5 C0.67 3.35 0.34 1.7 0 0 Z " fill="#44581A" transform="translate(42,227)"/>
<path d="M0 0 C0.33 0.66 0.66 1.32 1 2 C4.02934491 2.65772428 4.02934491 2.65772428 7 3 C7 3.33 7 3.66 7 4 C4.36 4.33 1.72 4.66 -1 5 C-1 1 -1 1 0 0 Z " fill="#F9FCA2" transform="translate(138,152)"/>
<path d="M0 0 C0 2.62113708 -0.31292445 4.50935112 -1 7 C-2.32 7.33 -3.64 7.66 -5 8 C-3.8141763 4.62496331 -2.72426311 2.35277269 0 0 Z " fill="#88A628" transform="translate(152,138)"/>
<path d="M0 0 C2.64 0 5.28 0 8 0 C7.67 1.32 7.34 2.64 7 4 C4.69 3.01 2.38 2.02 0 1 C0 0.67 0 0.34 0 0 Z " fill="#2D3E10" transform="translate(129,131)"/>
<path d="M0 0 C1.485 0.99 1.485 0.99 3 2 C1.68 1.67 0.36 1.34 -1 1 C-0.67 0.67 -0.34 0.34 0 0 Z " fill="#394023" transform="translate(80,324)"/>
<path d="M0 0 C0.66 0 1.32 0 2 0 C1.67 0.99 1.34 1.98 1 3 C0.67 2.01 0.34 1.02 0 0 Z " fill="#4F5B25" transform="translate(1,226)"/>
<path d="M0 0 C0.33 0.66 0.66 1.32 1 2 C0.01 1.67 -0.98 1.34 -2 1 C-1.34 0.67 -0.68 0.34 0 0 Z " fill="#5F6D2B" transform="translate(123,4)"/>
<path d="M0 0 C0.33 0.66 0.66 1.32 1 2 C0.34 1.67 -0.32 1.34 -1 1 C-0.67 0.67 -0.34 0.34 0 0 Z " fill="#383E21" transform="translate(48,308)"/>
<path d="M0 0 C0.33 0.66 0.66 1.32 1 2 C0.34 1.67 -0.32 1.34 -1 1 C-0.67 0.67 -0.34 0.34 0 0 Z " fill="#3A4221" transform="translate(218,284)"/>
<path d="M0 0 C3 1 3 1 3 1 Z " fill="#516020" transform="translate(231,160)"/>
<path d="M0 0 C0.33 0.66 0.66 1.32 1 2 C0.34 1.67 -0.32 1.34 -1 1 C-0.67 0.67 -0.34 0.34 0 0 Z " fill="#667729" transform="translate(120,9)"/>
<path d="M0 0 C2 1 2 1 2 1 Z " fill="#394123" transform="translate(145,328)"/>
<path d="M0 0 C2 1 2 1 2 1 Z " fill="#394022" transform="translate(88,327)"/>
<path d="" fill="#3B4322" transform="translate(0,0)"/>
<path d="" fill="#3A431F" transform="translate(0,0)"/>
<path d="" fill="#495424" transform="translate(0,0)"/>
<path d="" fill="#4E5926" transform="translate(0,0)"/>
<path d="" fill="#4E5A21" transform="translate(0,0)"/>
<path d="" fill="#546428" transform="translate(0,0)"/>
<path d="M0 0 C2 1 2 1 2 1 Z " fill="#586728" transform="translate(245,156)"/>
<path d="M0 0 C2 1 2 1 2 1 Z " fill="#768D27" transform="translate(175,99)"/>
<path d="M0 0 C2 1 2 1 2 1 Z " fill="#5C6A2B" transform="translate(125,4)"/>
<path d="" fill="#5E6B2C" transform="translate(0,0)"/>
<path d="" fill="#394125" transform="translate(0,0)"/>
<path d="" fill="#444930" transform="translate(0,0)"/>
<path d="" fill="#3A4222" transform="translate(0,0)"/>
<path d="" fill="#3A4324" transform="translate(0,0)"/>
<path d="" fill="#3C4328" transform="translate(0,0)"/>
<path d="" fill="#394023" transform="translate(0,0)"/>
<path d="" fill="#3A3F25" transform="translate(0,0)"/>
<path d="" fill="#41472F" transform="translate(0,0)"/>
<path d="" fill="#384123" transform="translate(0,0)"/>
<path d="" fill="#454A2F" transform="translate(0,0)"/>
<path d="" fill="#394124" transform="translate(0,0)"/>
<path d="" fill="#37411F" transform="translate(0,0)"/>
<path d="" fill="#3C4223" transform="translate(0,0)"/>
<path d="" fill="#394123" transform="translate(0,0)"/>
<path d="" fill="#454C2F" transform="translate(0,0)"/>
<path d="" fill="#393F23" transform="translate(0,0)"/>
<path d="" fill="#3B4124" transform="translate(0,0)"/>
<path d="" fill="#374121" transform="translate(0,0)"/>
<path d="" fill="#3A421F" transform="translate(0,0)"/>
<path d="" fill="#464C2E" transform="translate(0,0)"/>
<path d="" fill="#3C4421" transform="translate(0,0)"/>
<path d="" fill="#3C4421" transform="translate(0,0)"/>
<path d="" fill="#3B4222" transform="translate(0,0)"/>
<path d="" fill="#444D2B" transform="translate(0,0)"/>
<path d="" fill="#3E4522" transform="translate(0,0)"/>
<path d="" fill="#444D2C" transform="translate(0,0)"/>
<path d="" fill="#39421E" transform="translate(0,0)"/>
<path d="" fill="#3C4523" transform="translate(0,0)"/>
<path d="" fill="#474D2C" transform="translate(0,0)"/>
<path d="" fill="#3B4321" transform="translate(0,0)"/>
<path d="" fill="#444D2A" transform="translate(0,0)"/>
<path d="" fill="#3B4422" transform="translate(0,0)"/>
<path d="" fill="#484F2C" transform="translate(0,0)"/>
<path d="" fill="#464E29" transform="translate(0,0)"/>
<path d="" fill="#3C4621" transform="translate(0,0)"/>
<path d="" fill="#3C4520" transform="translate(0,0)"/>
<path d="" fill="#474F2A" transform="translate(0,0)"/>
<path d="" fill="#444C28" transform="translate(0,0)"/>
<path d="" fill="#424B23" transform="translate(0,0)"/>
<path d="" fill="#434C24" transform="translate(0,0)"/>
<path d="" fill="#444F20" transform="translate(0,0)"/>
<path d="" fill="#465120" transform="translate(0,0)"/>
<path d="" fill="#444E26" transform="translate(0,0)"/>
<path d="" fill="#454D23" transform="translate(0,0)"/>
<path d="" fill="#434C25" transform="translate(0,0)"/>
<path d="" fill="#444D22" transform="translate(0,0)"/>
<path d="" fill="#4B5724" transform="translate(0,0)"/>
<path d="" fill="#414C23" transform="translate(0,0)"/>
<path d="" fill="#40471F" transform="translate(0,0)"/>
<path d="" fill="#3F481D" transform="translate(0,0)"/>
<path d="" fill="#414B21" transform="translate(0,0)"/>
<path d="" fill="#404A20" transform="translate(0,0)"/>
<path d="" fill="#404A20" transform="translate(0,0)"/>
<path d="" fill="#434D24" transform="translate(0,0)"/>
<path d="" fill="#414C22" transform="translate(0,0)"/>
<path d="" fill="#404C22" transform="translate(0,0)"/>
<path d="" fill="#5B6828" transform="translate(0,0)"/>
<path d="" fill="#444F22" transform="translate(0,0)"/>
<path d="" fill="#424C1F" transform="translate(0,0)"/>
<path d="" fill="#454F20" transform="translate(0,0)"/>
<path d="" fill="#5F6C28" transform="translate(0,0)"/>
<path d="" fill="#485223" transform="translate(0,0)"/>
<path d="" fill="#62732D" transform="translate(0,0)"/>
<path d="" fill="#495322" transform="translate(0,0)"/>
<path d="" fill="#63742B" transform="translate(0,0)"/>
<path d="" fill="#4B5623" transform="translate(0,0)"/>
<path d="" fill="#4C5823" transform="translate(0,0)"/>
<path d="" fill="#69792F" transform="translate(0,0)"/>
<path d="" fill="#515D2A" transform="translate(0,0)"/>
<path d="" fill="#556229" transform="translate(0,0)"/>
<path d="" fill="#526025" transform="translate(0,0)"/>
<path d="" fill="#556224" transform="translate(0,0)"/>
<path d="" fill="#546225" transform="translate(0,0)"/>
<path d="" fill="#576728" transform="translate(0,0)"/>
<path d="" fill="#566927" transform="translate(0,0)"/>
<path d="" fill="#546424" transform="translate(0,0)"/>
<path d="" fill="#596629" transform="translate(0,0)"/>
<path d="" fill="#7E9729" transform="translate(0,0)"/>
<path d="" fill="#81942F" transform="translate(0,0)"/>
<path d="" fill="#5B682A" transform="translate(0,0)"/>
<path d="" fill="#80952F" transform="translate(0,0)"/>
<path d="" fill="#B7CB54" transform="translate(0,0)"/>
<path d="" fill="#9EB73F" transform="translate(0,0)"/>
<path d="" fill="#546722" transform="translate(0,0)"/>
<path d="" fill="#80972C" transform="translate(0,0)"/>
<path d="" fill="#5B6A2B" transform="translate(0,0)"/>
<path d="" fill="#596B24" transform="translate(0,0)"/>
<path d="" fill="#8DA732" transform="translate(0,0)"/>
<path d="" fill="#586B24" transform="translate(0,0)"/>
<path d="" fill="#596A24" transform="translate(0,0)"/>
<path d="" fill="#819A29" transform="translate(0,0)"/>
<path d="" fill="#81982B" transform="translate(0,0)"/>
<path d="" fill="#889F31" transform="translate(0,0)"/>
<path d="" fill="#7F992B" transform="translate(0,0)"/>
<path d="" fill="#839B2C" transform="translate(0,0)"/>
<path d="" fill="#5B6D22" transform="translate(0,0)"/>
<path d="" fill="#809B28" transform="translate(0,0)"/>
<path d="" fill="#7F962D" transform="translate(0,0)"/>
<path d="" fill="#5C6A2D" transform="translate(0,0)"/>
<path d="" fill="#83982F" transform="translate(0,0)"/>
<path d="" fill="#82982E" transform="translate(0,0)"/>
<path d="" fill="#7C922B" transform="translate(0,0)"/>
<path d="" fill="#5F7027" transform="translate(0,0)"/>
<path d="" fill="#5D6A2D" transform="translate(0,0)"/>
<path d="" fill="#7B922B" transform="translate(0,0)"/>
<path d="" fill="#627225" transform="translate(0,0)"/>
<path d="" fill="#80982A" transform="translate(0,0)"/>
<path d="" fill="#5D6B2E" transform="translate(0,0)"/>
<path d="" fill="#82982D" transform="translate(0,0)"/>
<path d="" fill="#627423" transform="translate(0,0)"/>
<path d="" fill="#81962D" transform="translate(0,0)"/>
<path d="" fill="#5C692D" transform="translate(0,0)"/>
<path d="" fill="#788C2C" transform="translate(0,0)"/>
<path d="" fill="#80952B" transform="translate(0,0)"/>
<path d="" fill="#7E9729" transform="translate(0,0)"/>
<path d="" fill="#738828" transform="translate(0,0)"/>
<path d="" fill="#5A672D" transform="translate(0,0)"/>
<path d="" fill="#7F972A" transform="translate(0,0)"/>
<path d="" fill="#6B7D28" transform="translate(0,0)"/>
<path d="" fill="#697E26" transform="translate(0,0)"/>
<path d="" fill="#6E8129" transform="translate(0,0)"/>
<path d="" fill="#59642C" transform="translate(0,0)"/>
<path d="" fill="#56622C" transform="translate(0,0)"/>
<path d="" fill="#80952B" transform="translate(0,0)"/>
<path d="" fill="#53612B" transform="translate(0,0)"/>
<path d="" fill="#809928" transform="translate(0,0)"/>
<path d="" fill="#535F29" transform="translate(0,0)"/>
<path d="" fill="#5A6925" transform="translate(0,0)"/>
<path d="" fill="#555F2C" transform="translate(0,0)"/>
<path d="" fill="#7F942E" transform="translate(0,0)"/>
<path d="" fill="#525C2A" transform="translate(0,0)"/>
<path d="" fill="#7E972A" transform="translate(0,0)"/>
<path d="" fill="#7C922A" transform="translate(0,0)"/>
<path d="" fill="#515C2B" transform="translate(0,0)"/>
<path d="" fill="#7B922A" transform="translate(0,0)"/>
<path d="" fill="#50592A" transform="translate(0,0)"/>
<path d="" fill="#576824" transform="translate(0,0)"/>
<path d="" fill="#576624" transform="translate(0,0)"/>
<path d="" fill="#556622" transform="translate(0,0)"/>
<path d="" fill="#4E5629" transform="translate(0,0)"/>
<path d="" fill="#54631D" transform="translate(0,0)"/>
<path d="" fill="#556424" transform="translate(0,0)"/>
<path d="" fill="#4C542A" transform="translate(0,0)"/>
<path d="" fill="#576725" transform="translate(0,0)"/>
<path d="" fill="#576623" transform="translate(0,0)"/>
<path d="" fill="#495129" transform="translate(0,0)"/>
<path d="" fill="#474D29" transform="translate(0,0)"/>
<path d="" fill="#444B29" transform="translate(0,0)"/>
<path d="" fill="#64722B" transform="translate(0,0)"/>
<path d="" fill="#596A28" transform="translate(0,0)"/>
</svg>
